<svg width="1024" height="1024" viewBox="0 0 1024 1024" fill="none" xmlns="http://www.w3.org/2000/svg">
<path d="M513.599 313.241C520.03 313.779 525.994 314.326 531.969 314.713C535.797 314.961 537.733 316.548 537.403 320.664C537.145 323.877 537.351 327.128 538.026 330.325C538.026 327.251 537.913 324.172 538.066 321.106C538.166 319.106 537.572 316.409 541.076 316.549C544.184 316.673 545.481 318.3 545.416 321.377C545.317 326.022 545.39 330.671 545.39 335.318C545.797 335.334 546.203 335.351 546.609 335.367C546.609 329.952 546.609 324.538 546.609 319.563C548.983 318.314 550.338 319.241 551.686 319.762C573.89 328.341 593.832 351.169 594.543 379.568C594.864 392.414 595.042 405.285 593.905 417.987C592.25 436.459 573.516 454.701 552.153 454.921C523.008 455.222 493.832 456.163 464.728 454.246C442.163 452.76 423.744 432.636 423.765 410.094C423.777 398.112 422.281 386.11 423.674 374.155C426.558 349.413 441.921 328.587 464.934 319.577C467.718 318.487 469.07 319.227 469.173 322.211C469.196 322.876 469.325 323.572 469.183 324.205C466.885 334.431 472.508 341.196 479.221 347.565C480.779 349.042 482.395 349.851 484.53 349.843C492.85 349.811 501.171 349.83 509.497 348.994C501.779 348.994 494.061 348.942 486.345 349.019C483.276 349.049 480.831 348.086 479.043 345.536C478.472 344.721 477.892 343.797 477.087 343.279C468.76 337.925 469.629 329.549 469.757 321.385C469.831 316.658 473.263 317.017 476.339 316.512C479.551 322.161 473.881 330.056 481.486 334.036C476.724 329.138 478.917 323.113 478.996 317.534C479.031 315.054 481.902 315.092 483.765 314.853C493.511 313.604 503.286 312.669 513.599 313.241ZM575.715 425.166C577.845 422.12 579.324 418.824 579.83 415.099C581.249 404.654 581.461 394.159 579.758 383.786C577.91 372.529 569.725 365.494 558.371 365.071C525.406 363.843 492.421 364.258 459.444 364.311C448.516 364.328 440.453 371.295 438.318 382.068C436.229 392.603 436.537 403.386 437.885 413.897C439.467 426.226 447.557 433.618 458.598 433.77C491.239 434.222 523.884 434.414 556.528 434.555C564.034 434.588 570.523 431.848 575.715 425.166ZM584.102 373.1C586.408 377.489 587.097 382.212 587.068 387.103C587.034 392.879 587.06 398.655 587.06 404.43C587.737 380.863 588.877 375.547 582.77 370.7C583.142 371.392 583.456 371.977 584.102 373.1ZM462.787 444.882C463.961 446.596 465.385 447.054 466.832 445.341C468 443.961 467.152 442.694 465.869 442.09C463.784 441.11 462.786 442.238 462.787 444.882ZM486.389 338.237C486.014 337.939 485.639 337.642 485.071 337.191C488.555 342.352 488.72 342.403 498.995 341.533C494.728 340.462 490.013 342.619 486.389 338.237Z" fill="black"/>
<path d="M527.709 487.663C538.711 481.695 549.461 476.047 559.458 469.064C569.649 461.946 578.836 453.874 585.724 443.414C586.179 442.722 586.461 441.917 587.358 441.442C589.977 445.85 589.286 450.125 588.959 454.279C586.922 480.226 573.814 499.797 553.882 515.613C541.244 525.642 528.432 535.491 516.63 546.527C499.501 562.544 485.995 580.66 482.76 604.837C481.931 611.033 483.621 617.007 483.571 624.11C478.201 620.93 474.568 616.882 471.135 612.808C461.113 600.913 454.793 587.261 453.965 571.609C453.175 556.697 458.226 543.477 467.486 531.87C479.971 516.222 496.064 505.098 513.383 495.538C518.046 492.963 522.713 490.396 527.709 487.663ZM546.636 504.026C544.738 502.821 543.14 503.239 541.937 505.037C541.107 506.278 541.268 507.599 542.249 508.705C543.394 509.997 544.905 510.198 546.297 509.318C548.198 508.115 548.135 506.359 546.636 504.026ZM476.436 567.387C480.12 563.486 474.864 563.278 474.343 561.105C471.762 561.937 471.059 563.561 471.492 565.537C471.999 567.844 473.797 568.109 476.436 567.387Z" fill="black"/>
<path d="M494.186 553.249C493.519 553.115 493.027 552.859 492.708 552.482C492.393 552.091 492.296 551.596 492.417 550.995C492.512 550.524 492.676 550.149 492.91 549.87C493.156 549.593 493.553 549.313 494.1 549.029L503.527 544.078C503.831 543.922 504.045 543.768 504.171 543.616C504.313 543.454 504.409 543.249 504.459 543.001C504.549 542.557 504.319 542.279 503.77 542.168L495.772 540.552C495.523 540.502 495.33 540.415 495.192 540.292C495.069 540.158 495.028 539.994 495.067 539.798C495.152 539.379 495.468 539.226 496.017 539.337L504.192 540.988C504.859 541.123 505.351 541.379 505.669 541.756C505.988 542.133 506.085 542.629 505.961 543.243C505.863 543.727 505.692 544.1 505.448 544.364C505.218 544.63 504.829 544.905 504.282 545.189L494.831 550.156C494.543 550.302 494.328 550.456 494.187 550.618C494.058 550.782 493.969 550.988 493.919 551.237C493.829 551.681 494.078 551.963 494.667 552.082L503.155 553.797C503.403 553.847 503.589 553.939 503.711 554.072C503.837 554.193 503.88 554.351 503.84 554.547C503.798 554.756 503.694 554.899 503.529 554.974C503.364 555.05 503.158 555.062 502.909 555.012L494.186 553.249Z" fill="white"/>
<path d="M544.431 499.046L544.491 498.748C544.641 498.445 545.245 497.662 546.305 496.399C546.955 495.877 547.306 495.564 547.357 495.459C547.275 495.302 547.135 495.175 546.936 495.077L546.901 495.059L546.779 494.999C546.627 494.924 546.603 494.781 546.707 494.571C546.671 494.379 546.716 494.155 546.843 493.898C547.016 493.548 547.144 493.393 547.225 493.433L548.949 494.089L549.457 494.34C549.877 494.547 550.1 494.73 550.124 494.887C550.177 495.044 550.189 495.151 550.16 495.21C549.779 495.835 549.53 496.118 549.413 496.061C549.092 496.004 548.787 496.107 548.497 496.371C547.383 497.215 546.705 497.882 546.463 498.372L546.186 498.845C545.897 499.429 545.838 499.828 546.008 500.043C546.126 500.275 546.342 500.469 546.657 500.625L546.675 500.633C547.317 500.951 548.012 500.88 548.761 500.422C549.359 499.89 549.778 499.378 550.021 498.888C550.114 498.934 550.372 498.735 550.795 498.29C551.022 498.272 551.222 498.087 551.395 497.737C551.714 497.444 552.414 497.144 553.496 496.836L553.6 496.8L553.671 496.835C553.694 496.847 553.688 496.887 553.654 496.957L553.689 496.975C554.12 496.984 554.364 497.003 554.423 497.032C555.473 497.551 556.049 498.046 556.151 498.518C556.391 498.825 556.542 499.299 556.603 499.939C556.834 500.736 556.808 501.42 556.525 501.992L556.223 502.605C555.627 503.458 555.282 503.862 555.189 503.815C554.55 504.168 554.211 504.385 554.17 504.467C553.619 504.906 553.143 505.165 552.741 505.242L552.707 505.312C553.046 505.654 553.193 505.872 553.147 505.965C552.667 506.643 552.357 506.947 552.216 506.878C551.983 506.85 551.455 506.64 550.632 506.248L549.633 505.537C549.236 505.341 549.061 505.196 549.107 505.103L549.538 503.921C549.579 503.84 549.94 503.916 550.622 504.152L551.758 504.103C551.793 504.12 552.4 503.774 553.578 503.063C553.997 502.951 554.325 502.655 554.561 502.176L554.864 501.563C555.169 500.945 555.179 500.426 554.891 500.009C554.732 499.596 554.404 499.187 553.907 498.782L553.854 498.756C553.516 498.589 552.943 498.676 552.135 499.017C551.716 499.13 551.409 499.385 551.213 499.782C550.992 499.963 550.622 500.434 550.102 501.193L548.692 502.24L547.776 502.637C547.189 502.71 546.795 502.712 546.597 502.643L546.317 502.461L545.617 502.202C545.453 502.121 545.31 501.927 545.186 501.619C545.046 501.55 544.863 501.111 544.638 500.302C544.617 499.639 544.548 499.22 544.431 499.046ZM544.693 498.957L544.763 498.992C544.809 499.015 544.888 498.959 544.998 498.825C545.13 498.498 545.167 498.32 545.109 498.291L545.039 498.257C544.957 498.216 544.835 498.359 544.674 498.686C544.628 498.78 544.634 498.87 544.693 498.957ZM546.915 494.369L546.95 494.387C547.224 494.362 547.384 494.303 547.43 494.21C547.476 494.116 547.452 494.017 547.359 493.913L547.289 493.878C547.219 493.844 547.094 494.007 546.915 494.369ZM547.761 494.025L547.805 494.112L547.866 494.077L547.909 493.989L547.804 493.937L547.761 494.025ZM545.705 498.847C545.775 498.824 545.827 498.777 545.862 498.707C545.92 498.59 545.916 498.436 545.851 498.244L545.738 498.297L545.643 498.49C545.556 498.665 545.577 498.784 545.705 498.847ZM546.864 496.457L546.882 496.466C546.917 496.483 546.975 496.425 547.056 496.29L547.082 496.238L547.064 496.229C547.041 496.218 546.974 496.294 546.864 496.457ZM546.313 498.146L546.349 498.25C546.431 498.291 546.587 498.106 546.818 497.698L546.765 497.672C546.719 497.649 546.574 497.795 546.331 498.111L546.313 498.146ZM545.645 500.865L545.663 500.874L545.698 500.848L545.732 500.778C545.672 500.429 545.584 500.225 545.467 500.167L545.459 500.185L545.441 500.22C545.378 500.348 545.446 500.564 545.645 500.865ZM547.882 495.588L547.9 495.64C548.109 495.54 548.289 495.396 548.439 495.209L548.413 495.174L548.378 495.157C548.32 495.128 548.16 495.26 547.899 495.553L547.882 495.588ZM545.348 500.806L545.34 500.867L545.383 500.867L545.401 500.875L545.418 500.797L545.365 500.771L545.348 500.806ZM547.616 496.567L547.625 496.593L547.66 496.611C548.049 496.353 548.266 496.177 548.313 496.083L548.295 496.075C548.225 496.04 547.999 496.204 547.616 496.567ZM545.298 501.391L545.255 501.479L545.369 501.557L545.422 501.583L545.465 501.582L545.333 501.408L545.298 501.391ZM545.632 501.774L545.624 501.835C545.857 501.921 546.029 501.97 546.14 501.981L546.166 501.929L546.148 501.92L545.667 501.704L545.632 501.774ZM546.023 501.379L546.041 501.475L546.094 501.501L546.12 501.448L546.093 501.326L546.058 501.309L546.023 501.379ZM549.377 495.738L549.377 495.825C549.481 495.76 549.594 495.606 549.715 495.36L549.871 495.002L549.801 494.967C549.674 495.166 549.555 495.376 549.446 495.598L549.377 495.738ZM547.823 501.353L547.823 501.396L547.858 501.414L547.928 501.405L548.014 501.23L547.962 501.204C547.921 501.198 547.874 501.248 547.823 501.353ZM547.477 502.184L547.512 502.245L547.53 502.254L547.582 502.236L547.608 502.184L547.556 502.158L547.477 502.184ZM547.738 501.921L547.729 501.938L547.764 501.956C548.061 502.001 548.23 501.983 548.271 501.901L548.305 501.831L548.261 501.7L548.243 501.691C547.958 501.739 547.79 501.816 547.738 501.921ZM548.17 501.045L548.188 501.098L548.293 501.15L548.45 501.096L548.476 501.044L548.467 500.974L548.38 500.931C548.275 500.937 548.205 500.975 548.17 501.045ZM548.868 500.693L548.885 500.745L548.903 500.754C549.118 500.671 549.353 500.504 549.608 500.252L549.573 500.191C549.503 500.157 549.268 500.324 548.868 500.693ZM549.781 499.946C549.828 499.969 550.155 499.615 550.763 498.884L550.893 498.665L550.919 498.613L550.901 498.604C550.46 498.822 550.092 499.17 549.797 499.649C549.775 499.841 549.769 499.94 549.781 499.946ZM549.107 501.486L549.099 501.504C549.18 501.544 549.282 501.5 549.404 501.371L549.403 501.328C549.345 501.299 549.246 501.352 549.107 501.486ZM550.393 499.987L550.463 500.021L550.715 499.775L550.81 499.583L550.757 499.557C550.572 499.727 550.45 499.87 550.393 499.987ZM551.563 498.234L551.486 498.392L551.538 498.418C551.643 498.382 551.971 498.159 552.522 497.749C552.847 497.619 553.042 497.49 553.105 497.362L553.114 497.344L553.079 497.283C552.596 497.379 552.091 497.696 551.563 498.234ZM552.848 498.324L552.839 498.341L552.927 498.385C553.044 498.442 553.233 498.412 553.494 498.295L553.546 498.189L553.406 498.12C553.266 498.051 553.08 498.119 552.848 498.324ZM549.979 504.749L549.936 504.837L550.006 504.871L550.058 504.853L550.058 504.766L549.979 504.749ZM551.042 506.124L551.489 506.323L551.497 506.305C551.491 506.2 551.237 506.024 550.735 505.776L550.595 505.707L550.543 505.725L550.525 505.76C550.508 505.795 550.68 505.916 551.042 506.124ZM554.369 498.683L554.326 498.771L554.414 498.814L554.457 498.77L554.431 498.692L554.369 498.683ZM554.863 497.685L554.933 497.895L555.021 497.938L555.091 497.929L555.117 497.876C555.14 497.8 555.064 497.719 554.889 497.633L554.863 497.685ZM552.032 504.914L552.006 504.966L552.076 505.001C552.385 504.935 552.579 504.821 552.66 504.657L552.677 504.622L552.625 504.596C552.264 504.738 552.067 504.844 552.032 504.914ZM555.344 499.797L555.414 499.831L555.432 499.796C555.414 499.657 555.358 499.52 555.264 499.387L555.194 499.396C555.206 499.518 555.256 499.652 555.344 499.797ZM552.23 506.013L552.187 506.101L552.257 506.136L552.352 506.074L552.369 505.995L552.334 505.978L552.23 506.013ZM555.969 498.929L556.165 499.767L556.2 499.784C556.224 499.795 556.247 499.778 556.27 499.731C556.339 499.591 556.248 499.306 555.995 498.876L555.969 498.929ZM554.698 503.486L554.412 503.976L554.447 503.994C554.494 504.017 554.627 503.894 554.847 503.625L554.952 503.59L554.995 503.502C554.82 503.445 554.721 503.439 554.698 503.486ZM555.229 503.029L555.15 503.056L555.22 503.09L555.246 503.038L555.229 503.029ZM555.344 503.282L555.326 503.317L555.449 503.29L555.518 503.15L555.5 503.141C555.448 503.13 555.396 503.177 555.344 503.282ZM556.347 501.251L556.365 501.303L556.417 501.329L556.47 501.311L556.504 501.241C556.602 501.014 556.628 500.888 556.581 500.865L556.52 500.9L556.347 501.251ZM555.622 502.984C555.796 502.866 555.952 502.668 556.091 502.387L556.108 502.352L556.445 501.582L556.41 501.565C556.299 501.554 556.053 501.933 555.673 502.704C555.592 502.867 555.575 502.961 555.622 502.984Z" fill="white"/>
<path d="M473.541 548.556C473.367 549.403 473.144 550.102 472.874 550.653C472.605 551.217 472.249 551.645 471.806 551.938C471.365 552.244 470.789 552.449 470.076 552.552L469.848 550.968C470.798 550.831 471.495 550.575 471.94 550.201C472.386 549.841 472.696 549.237 472.87 548.39L473.022 547.62L472.448 547.703L468.339 539.809C468.152 539.445 468.02 539.235 467.945 539.179C467.867 539.109 467.721 539.076 467.506 539.08L466.48 539.107L466.402 538.573L470.916 537.922L470.993 538.456L470 538.721C469.818 538.76 469.719 538.822 469.704 538.905C469.689 538.988 469.775 539.211 469.962 539.575L473.325 546.081L474.73 538.867C474.793 538.467 474.807 538.236 474.771 538.174C474.749 538.11 474.636 538.079 474.435 538.081L473.388 538.111L473.311 537.576L476.933 537.054L477.011 537.588L476.018 537.852C475.824 537.907 475.699 537.973 475.642 538.048C475.586 538.124 475.519 538.362 475.442 538.764L473.541 548.556Z" fill="white"/>
<path d="M343.704 669.126C343.93 649.831 354.879 638.824 373.59 638.682C377.249 638.654 380.972 638.479 384.557 639.049C399.492 641.425 407.529 650.18 407.962 665.535C408.417 681.68 408.016 697.849 408.06 714.008C408.07 717.759 406.589 719.354 402.667 719.282C388.587 719.02 390.689 720.364 390.801 707.739C390.845 702.799 389.043 701.221 384.424 701.366C378.266 701.561 372.096 701.503 365.935 701.369C362.512 701.295 361.059 702.678 361.232 706.112C361.383 709.102 361.186 712.109 361.253 715.105C361.32 718.072 359.925 719.309 357.01 719.287C341.222 719.17 343.944 720.878 343.78 707.089C343.632 694.597 343.719 682.102 343.704 669.126ZM390.668 671.619C390.636 658.005 386.996 654.518 373.4 655.078C372.903 655.099 372.405 655.123 371.909 655.162C365.396 655.669 361.629 659.432 361.381 666.052C361.189 671.188 361.449 676.342 361.267 681.48C361.149 684.777 362.577 685.92 365.698 685.827C369.51 685.712 373.329 685.822 377.146 685.836C390.649 685.883 390.649 685.883 390.668 671.619Z" fill="black"/>
<path d="M508.802 486.16C510.448 487.539 512.202 488.315 512.91 490.002C512.38 492.278 510.497 492.921 509.006 493.839C499.643 499.606 490.399 505.557 481.776 512.386C479.244 514.391 477.511 513.994 475.27 512.133C460.142 499.571 444.243 488.033 428.006 476.961C424.987 474.902 423.542 472.486 423.576 468.696C423.643 461.377 423.132 454.055 423.038 446.732C422.973 441.675 424.162 440.79 428.569 442.928C455.816 456.15 483.584 468.415 508.802 486.16ZM440.908 465.474C438.823 467.767 438.439 470.241 440.665 472.551C442.232 474.178 444.354 474.083 446.205 472.984C448.518 471.61 448.35 469.267 447.595 467.211C446.523 464.293 444.273 463.751 440.908 465.474Z" fill="black"/>
<path d="M442.379 661.478C448.415 662.751 453.864 666.315 459.86 662.317C461.026 661.539 463.115 662.158 464.778 662.114C468.615 662.011 470.388 663.45 470.342 667.703C470.117 688.178 470.197 708.656 470.109 729.133C470.083 735.287 469.416 735.849 463.118 735.94C453.484 736.078 453.486 736.078 453.587 726.686C453.625 723.22 453.616 719.759 452.516 715.978C440.075 722.741 428.767 721.504 419.326 711.205C411.302 702.452 410.159 686.762 415.981 675.459C420.986 665.742 430.76 660.46 442.379 661.478ZM429.308 693.964C429.846 697.969 431.558 701.188 435.299 703.115C440.258 705.668 445.817 705.132 449.683 701.673C453.572 698.194 454.862 690.904 452.636 684.984C450.561 679.467 445.454 676.575 439.074 677.304C433.931 677.892 430.241 681.56 429.421 687.159C429.135 689.111 429.296 691.129 429.308 693.964Z" fill="black"/>
<path d="M570.267 700.998C570.249 705.994 570.236 710.49 570.206 714.986C570.192 716.97 569.699 718.992 567.379 718.944C563.028 718.854 558.412 720.679 554.397 717.497C552.753 716.194 551.203 717.278 549.7 717.793C542.701 720.188 535.567 719.964 528.514 718.495C520.176 716.76 515.765 710.988 515.644 702.496C515.501 692.426 519.647 686.141 528.028 683.823C534.737 681.968 541.613 683.086 548.406 682.722C550.199 682.625 553.059 683.759 553.367 680.918C553.696 677.879 550.96 677.235 548.537 677.181C541.38 677.02 534.213 676.802 527.062 677.008C522.062 677.152 520.777 674.863 520.952 670.315C521.255 662.389 521.466 661.796 527.186 661.764C535.013 661.721 542.847 661.571 550.666 661.838C563.693 662.283 570.112 669.02 570.237 682.013C570.296 688.174 570.259 694.336 570.267 700.998ZM544.494 696.314C541.512 696.404 538.491 696.233 535.56 696.669C533.298 697.005 531.699 698.67 531.555 701.139C531.456 702.831 532.533 704.196 534.078 704.412C539.839 705.22 545.669 705.51 551.36 704.106C554.025 703.449 553.814 700.866 553.619 698.681C553.414 696.37 551.622 696.374 549.923 696.343C548.429 696.316 546.935 696.323 544.494 696.314Z" fill="black"/>
<path d="M574.848 678.291C578.002 665.457 582.814 661.701 595.643 661.696C603.799 661.692 611.957 661.822 620.109 661.655C623.976 661.576 625.37 663.023 625.372 666.921C625.378 676.354 625.531 676.354 615.882 676.347C610.556 676.343 605.22 676.143 599.908 676.407C596.911 676.556 591.8 674.652 591.767 679.382C591.73 684.645 597.065 682.298 600.13 682.611C605.069 683.116 610.083 682.284 615.027 683.52C623.548 685.65 627.34 690.865 627.359 700.874C627.376 710.334 623.119 716.695 614.87 718.194C603.169 720.32 591.303 718.902 579.508 719.006C577.368 719.024 576.12 717.683 575.99 715.551C575.869 713.562 575.974 711.561 575.92 709.566C575.823 705.999 577.436 704.542 581.076 704.629C588.396 704.805 595.722 704.678 603.045 704.671C604.377 704.67 605.711 704.693 607.039 704.618C609.156 704.497 611.321 703.94 611.4 701.469C611.482 698.956 609.374 698.291 607.221 698.176C602.24 697.908 597.25 697.774 592.276 697.419C580.591 696.584 575.137 690.698 574.848 678.291Z" fill="black"/>
<path d="M661.485 689.524C664.541 681.733 667.66 674.37 670.291 666.837C671.599 663.094 673.538 661.655 677.548 661.701C689.463 661.837 689.464 660.883 684.958 672.071C677.811 689.817 670.662 707.565 663.205 725.181C659.183 734.685 648.653 739.287 638.71 736.588C637.055 736.139 636.062 735.191 635.924 733.513C635.788 731.857 635.926 730.176 635.746 728.528C635.24 723.895 637.037 721.512 641.899 721.93C642.229 721.958 642.565 721.932 642.897 721.913C648.794 721.577 650.4 719.249 648.123 713.824C642.072 699.403 635.915 685.026 629.76 670.648C625.962 661.775 625.93 661.788 635.405 661.777C643.573 661.768 643.597 661.759 646.526 669.315C649.533 677.07 652.456 684.857 655.491 692.601C656.073 694.087 656.278 695.85 658.229 697.095C659.295 694.631 660.321 692.257 661.485 689.524Z" fill="black"/>
<path d="M555.467 530.563C566.698 544.709 573.123 560.164 572.441 578.206C572.299 581.979 571.59 583.716 567.222 582.745C557.996 580.694 548.677 579.049 539.375 577.349C536.221 576.773 534.442 575.178 533.637 572.011C531.596 563.985 527.982 556.713 522.149 550.743C519.707 548.243 520.389 546.621 522.782 544.676C530.527 538.379 538.224 532.019 545.823 525.546C548.181 523.537 549.94 523.941 551.731 526.068C552.91 527.467 554.069 528.882 555.467 530.563ZM557.607 569.314C560.845 565.393 560.533 562.63 556.121 560.868C553.787 559.936 552.843 558.425 551.906 556.419C549.333 550.918 546.123 545.816 541.86 541.419C544.79 546.395 548.18 551.087 550.726 556.275C551.661 558.18 552.56 559.924 551.473 562.366C549.07 567.763 550.798 569.879 557.607 569.314Z" fill="black"/>
<path d="M498.137 660.942C502.018 662.396 505.704 661.714 509.341 661.796C512.631 661.871 514.331 663.253 514.202 666.634C514.17 667.466 514.207 668.299 514.206 669.132C514.198 677.109 514.198 677.108 506.115 677.159C504.617 677.169 503.117 677.235 501.62 677.186C498.745 677.09 497.302 678.292 497.354 681.311C497.444 686.471 497.217 691.641 497.435 696.793C497.677 702.513 499.854 704.363 505.532 704.721C508.049 704.879 511.604 703.335 512.824 706.181C514.311 709.651 513.663 713.72 513.039 717.501C512.826 718.789 511.456 719.162 510.247 719.161C504.77 719.155 499.259 719.84 493.838 718.505C485.684 716.497 481.92 712.038 481.708 703.675C481.526 696.52 481.593 689.357 481.658 682.198C481.684 679.389 481.29 677.24 477.76 677.202C475.017 677.174 473.915 675.276 474.05 672.85C474.302 668.307 471.714 662.471 479.57 661.227C481.558 660.912 480.822 658.069 480.871 656.321C481.084 648.723 481.053 648.722 488.783 648.569C497.216 648.403 497.197 648.403 497.368 656.723C497.395 658.032 497.676 659.335 498.137 660.942Z" fill="black"/>
<path d="M517.989 574.892C534.122 579.884 550.159 583.501 566.5 585.673C570.603 586.218 571.99 587.847 570.82 591.967C568.675 599.521 565.926 606.8 562.23 613.735C560.766 616.481 559.046 617.535 555.809 616.409C533.288 608.576 516.671 593.59 503.882 573.91C503.37 573.122 502.729 572.222 503.611 570.741C508.399 571.239 512.838 573.656 517.989 574.892Z" fill="black"/>
<path d="M415.676 347.241C415.902 343.154 415.209 340.156 412.215 337.436C408.375 333.949 408.783 327.483 412.372 323.954C415.584 320.796 420.731 320.895 424.055 324.18C428.054 328.133 428.452 333.578 424.264 337.476C421.43 340.114 421.091 342.973 420.984 346.386C420.295 368.353 420.252 390.324 420.309 412.298C420.312 413.764 420.134 415.231 420.028 416.899C415.331 418.058 412.138 415.566 409.195 412.998C401.189 406.012 400.343 396.537 400.989 386.875C401.61 377.573 404.478 369.199 413.377 364.306C415.239 363.282 415.699 361.663 415.677 359.694C415.632 355.698 415.672 351.702 415.676 347.241ZM415.17 392.655C415.17 395.972 415.17 399.289 415.17 402.606C415.485 402.602 415.801 402.598 416.116 402.594C416.116 396.963 416.116 391.333 416.116 385.703C415.799 385.685 415.482 385.668 415.165 385.65C415.165 387.683 415.165 389.716 415.17 392.655Z" fill="black"/>
<path d="M592.244 330.731C594.078 326.484 596.917 324.047 601.256 324.477C605.087 324.856 607.43 327.371 608.602 331.044C609.943 335.249 608.757 338.532 605.25 341.078C605.116 341.175 604.952 341.239 604.834 341.351C600.91 345.084 602.407 364.491 606.915 367.376C612.228 370.777 614.773 375.869 615.673 381.821C617.307 392.631 618.22 403.397 610.426 412.626C609.679 413.51 608.909 414.44 607.969 415.082C605.275 416.922 602.515 419.959 599.097 418.285C596.058 416.797 597.713 413.142 597.698 410.508C597.579 389.721 597.619 368.933 597.698 348.145C597.71 345.042 597.454 342.403 594.742 340.184C591.989 337.932 591.21 334.651 592.244 330.731ZM603.352 385.506C603.359 390.455 603.596 395.402 602.836 400.354C605.099 398.406 605.308 379.502 603.35 373.573C603.35 377.959 603.35 381.246 603.352 385.506ZM610.62 390.477C610.62 387.883 610.62 385.288 610.62 382.694C609.572 385.049 609.519 387.327 609.595 389.6C609.63 390.634 609.921 391.66 610.096 392.689C610.267 392.656 610.439 392.623 610.61 392.59C610.61 392.095 610.61 391.601 610.62 390.477Z" fill="black"/>
<path d="M418.325 480.537C427.752 488.005 436.91 495.221 446.022 502.496C447.787 503.905 449.369 504.842 451.877 504.134C455.649 503.069 458.09 505.21 458.914 508.68C459.636 511.72 457.754 513.91 454.957 514.761C451.422 515.836 449.083 513.888 448.114 510.673C447.427 508.396 446.013 507.021 444.282 505.669C434.569 498.081 424.946 490.378 415.16 482.888C412.61 480.937 411.778 478.717 411.804 475.634C411.904 463.974 411.703 452.311 411.853 440.652C411.899 437.037 411.14 434.095 408.107 431.964C407.972 431.869 407.879 431.709 407.739 431.627C396.503 425.053 394.49 414.665 394.99 402.698C395.622 387.565 395.435 372.398 395.611 357.246C395.65 353.891 395.527 350.768 392.983 347.954C390.814 345.555 391.236 342.582 393.787 340.421C395.948 338.589 398.515 338.571 400.666 340.379C403.167 342.48 403.694 345.316 401.6 347.911C399.801 350.139 399.108 352.423 399.117 355.222C399.18 374.712 399.207 394.203 399.087 413.693C399.066 417.134 399.803 419.98 402.71 421.914C413.494 429.089 417.23 438.981 415.554 451.767C414.609 458.974 415.428 466.405 415.335 473.734C415.302 476.378 415.676 478.714 418.325 480.537Z" fill="black"/>
<path d="M505.359 735.963C507.484 735.719 509.07 735.958 510.152 737.547C510.339 737.822 510.545 738.32 510.741 738.319C517.631 738.29 519.384 743.409 521.137 748.574C521.278 748.99 521.885 749.226 522.185 749.614C523.544 751.374 524.086 754.273 522.598 755.062C517.941 757.53 522.245 766.358 514.404 766.094C513.748 766.072 512.662 765.813 512.499 766.089C507.499 774.585 502.063 765.621 496.845 766.404C495.066 766.67 493.383 764.367 493.528 762.609C493.779 759.559 493.005 757.453 490.886 755.183C488.756 752.901 494.347 739.4 497.352 739.694C501.065 740.057 502.492 737.294 505.359 735.963ZM509.549 759.385C513.253 757.281 514.643 754.092 513.257 750.113C512.188 747.041 509.767 745.186 506.356 745.405C502.732 745.638 500.693 747.989 499.75 751.285C498.288 756.391 502.288 760.032 509.549 759.385Z" fill="black"/>
<path d="M599.652 447.198C597.87 436.881 601.427 429.294 609.709 423.857C617.35 418.84 619.316 411.889 618.905 402.941C618.194 387.49 618.681 371.983 618.691 356.499C618.693 353.5 618.713 350.762 616.137 348.329C613.826 346.146 614.107 343.074 616.314 340.681C618.473 338.341 621.11 338.411 623.465 340.368C626.039 342.507 626.352 345.603 624.428 347.963C622.157 350.749 622.12 353.675 622.127 356.838C622.171 375.152 622.124 393.467 622.285 411.781C622.315 415.207 621.437 417.822 618.865 420.139C614.662 423.926 610.682 427.96 606.607 431.888C602.631 435.72 601.682 446.328 605.153 450.541C607.517 453.412 608.186 456.268 605.399 458.934C603.071 461.161 600.044 461.109 597.72 458.917C594.961 456.314 595.266 453.341 597.766 450.512C598.514 449.666 599.002 448.591 599.652 447.198Z" fill="black"/>
<path d="M475.231 739.288C482.083 741.082 484.19 744.602 482.02 750.685C481.35 752.563 481.945 753.721 482.632 755.284C485.386 761.55 482.384 766.767 475.555 767.359C471.43 767.716 467.252 767.45 463.098 767.486C460.856 767.506 459.713 766.498 459.719 764.186C459.737 757.027 459.746 749.867 459.69 742.709C459.671 740.168 460.931 739.031 463.329 739.041C467.155 739.057 470.981 739.149 475.231 739.288ZM469.601 755.334C466.623 755.091 464.837 755.998 465.015 759.452C465.199 763.019 467.677 762.755 469.977 762.633C473.088 762.468 477.794 763.888 478.035 759.272C478.28 754.558 473.624 755.539 469.601 755.334ZM477.261 748.244C476.383 744.584 472.658 743.054 467.476 744.405C463.905 745.337 464.764 747.805 465.517 750.473C468.697 750.272 471.674 750.142 474.635 749.855C475.399 749.781 476.116 749.211 477.261 748.244Z" fill="black"/>
<path d="M401.99 759.713C395.168 756.72 393.249 757.649 392.246 764.131C391.998 765.738 391.674 767.148 389.688 767.151C387.738 767.154 387.054 765.753 387.041 764.168C386.986 757.015 387.003 749.861 387.101 742.708C387.127 740.797 388.218 739.673 390.297 739.698C395.123 739.754 399.986 739.394 404.765 739.882C411.262 740.545 414.337 748.649 410.438 754.201C409.591 755.408 408.515 756.455 407.35 757.799C409.115 760.771 410.853 763.695 412.79 766.956C405.62 769.254 405.08 762.965 401.99 759.713ZM395.871 744.386C392.037 744.18 392.363 746.858 392.298 749.398C392.22 752.439 394.082 752.908 396.483 752.852C398.46 752.806 400.438 752.833 402.413 752.761C404.917 752.669 406.529 751.438 406.543 748.839C406.557 746.344 405.083 744.812 402.65 744.519C400.698 744.284 398.702 744.405 395.871 744.386Z" fill="black"/>
<path d="M422.404 761.183C418.49 749.49 422.137 741.314 431.865 739.206C439.6 737.529 445.925 740.723 448.411 747.561C451.2 755.233 448.514 763.734 442.347 766.751C435.271 770.213 427.138 768.065 422.404 761.183ZM431.466 744.634C426.438 747.812 424.745 753.603 427.31 758.853C429.083 762.483 433.888 764.078 438.616 762.607C442.876 761.281 444.889 756.367 443.612 750.409C442.573 745.555 439.492 743.933 431.466 744.634Z" fill="black"/>
<path d="M622.055 738.985C624.515 739.018 626.514 738.991 628.506 739.099C630.207 739.192 631.331 740.02 631.337 741.893C631.344 743.96 629.932 744.304 628.308 744.322C625.48 744.353 622.649 744.294 619.823 744.376C617.372 744.448 614.264 744.055 614.305 747.719C614.344 751.128 617.297 750.606 619.568 750.687C621.231 750.746 622.902 750.64 624.559 750.757C629.741 751.121 632.438 754.017 632.454 759.131C632.47 763.866 629.757 766.924 624.822 767.213C620.676 767.455 616.505 767.303 612.346 767.267C610.817 767.254 609.211 767.09 608.98 765.101C608.708 762.754 610.495 762.303 612.173 762.196C615.324 761.997 618.493 762.098 621.649 761.959C623.74 761.867 626.483 762.257 626.597 759.167C626.714 755.997 623.973 756.335 621.866 756.18C619.878 756.035 617.853 756.159 615.902 755.826C610.975 754.986 608.232 751.856 608.306 747.455C608.381 743.036 611.196 739.993 616.117 739.244C617.913 738.971 619.765 739.06 622.055 738.985Z" fill="black"/>
<path d="M553.893 460.685C555.315 464.703 552.289 464.009 550.487 464.054C544.171 464.21 537.85 464.115 531.53 464.122C515.399 464.139 499.268 464.173 483.137 464.164C480.921 464.163 478.43 464.664 477.139 462.14C477.672 459.899 479.313 460.023 480.753 460.022C504.367 460.011 527.982 460.029 551.596 460.063C552.244 460.064 552.891 460.321 553.893 460.685Z" fill="black"/>
<path d="M575.696 753.913C576.054 741.685 587.622 734.363 598.333 739.112C599.568 739.66 600.159 740.478 600.08 741.796C599.982 743.423 598.993 744.186 597.475 744.227C594.648 744.303 591.814 744.203 588.99 744.331C583.87 744.562 581.414 747.267 581.205 752.728C580.968 758.899 583.285 762.125 588.563 762.576C591.372 762.816 594.218 762.603 597.045 762.666C598.502 762.698 599.682 763.242 599.739 764.954C599.784 766.326 599.056 767.168 597.707 767.33C587.125 768.601 576.54 768.226 575.696 753.913Z" fill="black"/>
<path d="M542.937 750.215C542.901 755.004 542.945 759.327 542.802 763.644C542.738 765.554 542.187 767.423 539.624 767.136C537.221 766.866 537.539 764.956 537.544 763.317C537.557 758.663 537.453 754.002 537.672 749.357C537.839 745.809 536.715 744.035 532.893 744.294C531.013 744.421 528.413 744.711 528.462 741.728C528.51 738.8 531.117 739.207 532.992 739.17C538.142 739.065 543.298 739.067 548.448 739.179C550.256 739.218 552.353 739.435 552.13 742.108C551.933 744.465 549.997 744.467 548.378 744.313C544.259 743.922 542.476 745.655 542.937 750.215Z" fill="black"/>
<path d="M437.42 325.465C443.354 320.089 449.045 314.978 454.657 309.781C456.769 307.825 458.897 305.929 461.905 305.765C464.169 305.641 464.869 304.038 465.826 302.451C467.703 299.34 470.607 298.75 473.568 300.388C476.431 301.973 477.058 304.898 475.705 307.769C474.257 310.84 471.546 311.404 468.522 310.096C464.149 308.203 460.574 309.298 457.173 312.463C450.969 318.237 444.593 323.827 438.267 329.47C436.955 330.641 435.795 332.224 433.418 331.774C432.203 328.164 435.678 327.517 437.42 325.465ZM471.809 303.259C469.623 302.543 468.649 303.597 468.785 305.626C468.855 306.677 469.896 307.335 470.974 307.048C472.852 306.55 473.095 305.254 471.809 303.259Z" fill="black"/>
<path d="M542.473 306.601C542.223 302.911 543.793 300.724 547.003 300.119C550.111 299.533 552.041 301.374 553.098 304.107C553.693 305.647 554.766 306.421 556.194 307.098C567.543 312.481 575.079 322.53 584.449 330.339C584.97 330.774 584.889 331.55 584.295 332.348C582.198 333.625 581.156 331.523 579.936 330.462C573.536 324.897 567.236 319.218 560.879 313.602C557.507 310.624 554.048 308.687 549.182 310.631C546.146 311.843 543.771 310.006 542.473 306.601Z" fill="black"/>
<path d="M502.179 472.22C499.326 471.848 496.259 473.25 494.976 469.758C498.983 467.325 533.48 467.368 538.514 469.789C538.001 472.957 535.452 472.193 533.524 472.205C523.234 472.268 512.944 472.226 502.179 472.22Z" fill="black"/>
<path d="M561.467 766.279C560.215 758.14 560.878 750.322 560.77 742.518C560.747 740.811 561.373 739.555 563.334 739.591C565.198 739.625 566.061 740.834 566.074 742.504C566.128 749.823 566.209 757.145 566.022 764.459C565.953 767.164 564.081 767.666 561.467 766.279Z" fill="black"/>
<path d="M509.518 475.896C514.437 475.925 518.915 475.93 523.39 476.038C524.701 476.07 526.28 476.231 526.324 478.003C526.368 479.776 524.838 480.057 523.5 480.074C518.858 480.132 514.214 480.117 509.572 480.058C508.205 480.041 506.739 479.658 506.479 478.11C506.167 476.245 507.754 476.119 509.518 475.896Z" fill="black"/>
<path d="M454.203 416.191C456.669 412.4 454.05 409.962 451.976 407.315C443.677 396.723 446.007 382.589 457.118 375.576C465.895 370.035 477 369.487 486.05 374.147C495.458 378.991 500.711 389.573 498.496 399.221C495.594 411.861 483.867 419.03 468.383 417.428C465.982 417.18 464.222 417.814 462.235 418.601C459.482 419.692 456.94 421.584 453.541 420.825C452.207 419.167 453.673 417.901 454.203 416.191ZM484.329 396.838C485.606 394.589 486.235 392.277 482.596 391.353C480.242 390.756 479.662 392.565 479.735 394.078C479.834 396.095 479.454 398.825 484.329 396.838Z" fill="black"/>
<path d="M553.735 420.488C537.952 420.68 527.427 414.387 523.939 402.953C520.682 392.277 526.128 380.673 536.758 375.831C545.728 371.745 554.553 372.062 562.97 376.909C572.126 382.182 575.479 389.885 574.946 398.81C574.684 403.2 573.321 407.694 569.63 410.965C565.731 414.419 564.798 417.716 567.722 421.81C568.308 422.63 568.743 423.68 567.645 424.984C562.486 425.272 558.971 421.494 553.735 420.488ZM539.732 399.361C543.397 399.8 544.431 398.067 543.851 395.512C543.491 393.926 541.965 392.587 539.937 393.495C537.007 394.808 537.329 396.903 539.732 399.361Z" fill="black"/>
<path d="M505.803 419.807C504.563 419.165 503.574 418.816 502.873 418.16C500.679 416.104 498.085 413.623 499.24 410.599C500.245 407.967 503.629 409.143 506.005 409.049C509.306 408.918 512.626 408.884 515.921 409.084C520.154 409.34 521.04 411.168 519.023 414.979C516.779 419.216 512.772 420.771 505.803 419.807Z" fill="black"/>
<path d="M472.805 604.734L472.972 605.227L469.373 606.445L469.206 605.952L470.191 605.493C470.325 605.433 470.42 605.38 470.474 605.333C470.525 605.274 470.556 605.179 470.568 605.048C470.588 604.9 470.592 604.66 470.577 604.327L470.394 591.742L471.587 591.338L479.121 601.436C479.312 601.709 479.455 601.9 479.548 602.01C479.649 602.102 479.738 602.156 479.814 602.173C479.886 602.177 479.987 602.164 480.118 602.133L481.198 601.895L481.365 602.387L476.761 603.945L476.594 603.452L477.598 602.986C477.791 602.892 477.882 602.806 477.869 602.725C477.864 602.629 477.72 602.389 477.435 602.006L475.838 599.844L471.216 601.408L471.259 604.096C471.266 604.573 471.29 604.853 471.333 604.937C471.384 605.004 471.514 605.016 471.725 604.973L472.805 604.734ZM471.2 600.738L475.443 599.302L471.091 593.427L471.2 600.738Z" fill="white"/>
<path d="M570.607 477.723C570.146 477.406 569.728 477.096 569.355 476.791C568.975 476.497 568.527 476.077 568.013 475.53C567.986 475.382 567.992 475.232 568.031 475.081C568.088 474.926 568.136 474.822 568.174 474.767C568.226 474.69 568.269 474.663 568.302 474.685C568.39 474.746 568.558 474.925 568.805 475.225C569.06 475.513 569.49 475.865 570.095 476.28C570.853 476.8 571.595 477.156 572.321 477.347C573.055 477.528 573.722 477.533 574.324 477.364C574.925 477.194 575.415 476.835 575.792 476.285C576.056 475.901 576.172 475.495 576.141 475.07C576.118 474.633 575.994 474.2 575.771 473.772C575.566 473.34 575.305 472.943 574.988 472.58C574.679 472.206 574.361 471.891 574.036 471.635C573.602 472.243 573.162 472.814 572.714 473.347C572.274 473.87 571.873 474.314 571.509 474.679C571.153 475.033 570.883 475.26 570.701 475.361C570.593 475.401 570.464 475.401 570.312 475.362C570.161 475.323 570.058 475.284 570.003 475.247C569.926 475.194 569.899 475.151 569.922 475.118C570.203 474.826 570.539 474.442 570.931 473.967C571.333 473.499 571.734 472.973 572.134 472.391C572.692 471.577 573.212 470.738 573.694 469.871C574.175 469.005 574.542 468.165 574.793 467.351C575.052 466.526 575.116 465.786 574.984 465.129L576.419 464.489C576.592 465.109 576.87 465.68 577.255 466.203C577.64 466.726 578.051 467.211 578.489 467.657C578.938 468.11 579.343 468.534 579.703 468.927C580.075 469.328 580.325 469.718 580.453 470.097C580.589 470.465 580.524 470.841 580.26 471.226C580.094 471.468 579.829 471.642 579.465 471.748C579.12 471.85 578.729 471.913 578.292 471.937C577.863 471.949 577.443 471.936 577.033 471.897C576.642 471.855 576.308 471.812 576.031 471.767C575.754 471.723 575.596 471.695 575.555 471.683C576.477 472.413 577.131 473.145 577.517 473.879C577.913 474.62 578.096 475.32 578.065 475.978C578.052 476.632 577.876 477.207 577.537 477.701C577.167 478.24 576.638 478.645 575.95 478.917C575.281 479.185 574.49 479.241 573.579 479.084C572.675 478.917 571.685 478.463 570.607 477.723ZM574.879 470.442C575.439 470.568 575.954 470.631 576.424 470.63C576.893 470.629 577.288 470.584 577.607 470.496C577.937 470.416 578.144 470.315 578.227 470.194C578.34 470.029 578.337 469.833 578.218 469.606C578.107 469.368 577.937 469.121 577.707 468.867C577.496 468.609 577.276 468.352 577.046 468.098C576.835 467.84 576.678 467.61 576.573 467.409C576.577 467.427 576.534 467.536 576.447 467.734C576.377 467.929 576.221 468.251 575.979 468.699C575.743 469.136 575.377 469.717 574.879 470.442Z" fill="white"/>
<path d="M434.376 464.389L426.545 454.162L433.675 448.703L434.708 450.053L429.309 454.187L431.68 457.283L436.492 453.599L437.513 454.933L432.702 458.617L435.085 461.73L440.484 457.595L441.505 458.929L434.376 464.389Z" fill="white"/>
<path d="M461.965 482.08C462.124 482.201 462.286 482.34 462.45 482.499C462.633 482.654 462.781 482.801 462.895 482.937L461.74 484.094C461.626 483.958 461.493 483.814 461.339 483.664C461.196 483.522 461.05 483.394 460.901 483.281C460.572 483.031 460.206 482.862 459.804 482.775C459.402 482.687 458.987 482.682 458.56 482.759C458.141 482.826 457.73 482.982 457.325 483.228C456.932 483.481 456.57 483.826 456.239 484.261L452.78 488.816L451.378 487.752L457.862 479.215L459.009 480.086L457.982 481.767L458.046 481.816C458.468 481.634 458.904 481.513 459.352 481.452C459.809 481.38 460.258 481.395 460.7 481.496C461.15 481.587 461.572 481.781 461.965 482.08Z" fill="white"/>
<path d="M482.097 485.827L490.545 479.358L492.527 481.947L492.114 482.263L490.377 480.948C490.248 480.845 490.142 480.784 490.059 480.763C489.979 480.724 489.882 480.74 489.768 480.81C489.646 480.87 489.458 480.997 489.203 481.192L487.409 482.566L494.303 491.569C494.587 491.94 494.769 492.145 494.85 492.184C494.93 492.223 495.063 492.188 495.248 492.08L496.195 491.506L496.511 491.919L492.684 494.85L492.368 494.437L493.168 493.673C493.321 493.522 493.39 493.402 493.373 493.315C493.356 493.227 493.206 492.998 492.922 492.627L486.028 483.624L484.217 485.01C483.974 485.196 483.802 485.344 483.702 485.455C483.604 485.546 483.558 485.64 483.565 485.736C483.573 485.813 483.61 485.928 483.676 486.079L484.492 488.099L484.079 488.415L482.097 485.827Z" fill="white"/>
<path d="M556.865 543.158L557.311 544.361L558.032 543.662C558.477 543.244 558.873 542.83 559.221 542.42C559.585 542 559.787 541.685 559.826 541.475C559.89 541.135 559.588 540.902 558.919 540.776L558.924 540.533L562.541 541.211L562.458 541.44C562.064 541.366 561.735 541.352 561.469 541.397C561.218 541.431 560.966 541.547 560.712 541.743C560.46 541.927 560.151 542.201 559.784 542.566C559.417 542.932 558.935 543.404 558.338 543.984L557.473 544.799L558.356 547.141C558.672 547.988 558.953 548.624 559.199 549.05C559.445 549.475 559.7 549.774 559.967 549.946C560.235 550.105 560.547 550.218 560.9 550.284L560.895 550.528L556.256 549.657L556.34 549.429C556.707 549.498 556.967 549.52 557.121 549.494C557.288 549.471 557.388 549.375 557.42 549.204C557.462 548.981 557.422 548.689 557.3 548.327C557.18 547.952 557.015 547.494 556.804 546.952L556.311 545.679L555.714 546.259C555.269 546.678 554.865 547.097 554.501 547.517C554.153 547.927 553.959 548.236 553.92 548.446C553.888 548.616 553.929 548.76 554.042 548.876C554.159 548.979 554.394 549.064 554.748 549.13L554.743 549.374L551.106 548.691L551.19 548.463C551.583 548.537 551.911 548.558 552.175 548.526C552.441 548.481 552.707 548.368 552.971 548.187C553.238 547.993 553.562 547.714 553.942 547.351C554.322 546.988 554.811 546.517 555.408 545.937L556.152 545.222L555.313 542.969C554.986 542.107 554.703 541.45 554.462 540.998C554.237 540.535 554.012 540.215 553.788 540.037C553.566 539.847 553.291 539.72 552.963 539.659L552.968 539.416L557.214 540.212L557.131 540.441C556.79 540.377 556.536 540.356 556.369 540.379C556.215 540.405 556.121 540.509 556.086 540.692C556.074 540.758 556.103 540.926 556.175 541.197C556.261 541.458 556.367 541.763 556.492 542.112C556.629 542.463 556.754 542.812 556.865 543.158Z" fill="white"/>
<path d="M513.18 507.446C512.56 507.838 512.239 508.404 512.218 509.143C512.2 509.864 512.562 510.811 513.303 511.983L513.944 512.997C514.692 514.18 515.399 514.924 516.065 515.229C516.735 515.515 517.459 515.413 518.237 514.921C518.766 514.586 519.109 514.18 519.265 513.703C519.421 513.226 519.345 512.619 519.037 511.883L520.093 511.57C520.375 512.465 520.345 513.241 520.004 513.898C519.662 514.556 519.159 515.095 518.494 515.515C517.277 516.285 516.125 516.484 515.039 516.114C513.958 515.725 513.014 514.894 512.209 513.621L511.995 513.283C511.197 512.02 510.858 510.823 510.978 509.69C511.091 508.546 511.711 507.618 512.838 506.906C513.559 506.449 514.245 506.213 514.897 506.195C515.56 506.171 516.146 506.336 516.655 506.693C517.157 507.038 517.545 507.526 517.818 508.158L516.611 509.205C516.165 508.225 515.642 507.586 515.042 507.286C514.454 506.98 513.833 507.033 513.18 507.446Z" fill="white"/>
<path d="M552.935 611.747L553.419 610.989C553.548 610.786 553.775 610.504 553.932 610.296C552.341 610.894 550.973 610.733 549.472 609.776C548.241 608.991 547.472 608.002 547.199 606.831C546.881 605.395 547.248 603.779 548.248 602.211C550.13 599.26 552.977 598.442 555.59 600.109C557.091 601.066 557.906 602.393 557.976 603.956C558.077 603.759 558.077 603.759 558.243 603.462C558.302 603.333 558.474 603.063 558.646 602.794L559.947 600.753C560.474 599.927 560.785 599.366 561.109 598.671L562.846 599.779C562.31 600.434 561.943 600.935 561.448 601.711L555.737 610.664C555.178 611.541 554.889 612.068 554.554 612.78L552.935 611.747ZM554.937 601.543C553.149 600.403 551.231 601.03 549.865 603.171C549.016 604.503 548.731 605.768 549.023 606.761C549.243 607.495 549.761 608.133 550.469 608.585C552.391 609.811 554.542 609.19 555.919 607.032C556.596 605.97 556.868 604.838 556.649 603.916C556.435 602.949 555.83 602.113 554.937 601.543Z" fill="white"/>
<path d="M513.649 580.403C513.419 580.626 513.158 580.739 512.865 580.744C512.573 580.729 512.311 580.602 512.08 580.363C511.857 580.133 511.748 579.876 511.753 579.593C511.767 579.301 511.89 579.044 512.12 578.822C512.35 578.599 512.606 578.49 512.889 578.495C513.181 578.491 513.439 578.603 513.661 578.834C513.893 579.073 514.006 579.344 514.001 579.645C513.996 579.928 513.879 580.181 513.649 580.403ZM513.899 584.028L513.524 583.64L515.81 581.43L521.565 587.383C521.889 587.718 522.094 587.901 522.178 587.93C522.262 587.96 522.391 587.911 522.562 587.781L523.437 587.103L523.798 587.477L520.405 590.758L520.043 590.384L520.751 589.533C520.886 589.366 520.94 589.239 520.913 589.154C520.886 589.069 520.71 588.858 520.386 588.523L515.757 583.734C515.432 583.399 515.228 583.216 515.144 583.187C515.059 583.157 514.931 583.207 514.759 583.336L513.899 584.028Z" fill="white"/>
</svg>
