<svg width="340" height="475" viewBox="0 0 340 475" fill="none" xmlns="http://www.w3.org/2000/svg">
<g filter="url(#filter0_d_2062_6916)">
<path d="M174.013 13.7425C180.444 14.2805 186.408 14.8273 192.383 15.2143C196.212 15.4623 198.147 17.0495 197.817 21.1655C197.559 24.3787 197.766 27.6291 198.44 30.8259C198.44 27.7523 198.327 24.6731 198.481 21.6071C198.581 19.6077 197.986 16.9099 201.49 17.0502C204.598 17.1746 205.895 18.8015 205.83 21.8784C205.731 26.5235 205.804 31.1722 205.804 35.8193C206.211 35.8357 206.617 35.852 207.024 35.8683C207.024 30.4535 207.024 25.0388 207.024 20.0647C209.397 18.8152 210.753 19.7424 212.1 20.2629C234.304 28.8427 254.246 51.6702 254.957 80.0689C255.278 92.9147 255.457 105.786 254.319 118.488C252.664 136.961 233.93 155.202 212.567 155.422C183.422 155.723 154.247 156.664 125.142 154.747C102.577 153.261 84.1584 133.137 84.1796 110.595C84.1908 98.6127 82.6949 86.611 84.0882 74.6557C86.9717 49.9137 102.335 29.0885 125.348 20.0784C128.132 18.9886 129.484 19.7284 129.587 22.7118C129.61 23.3775 129.739 24.0736 129.597 24.7058C127.299 34.9318 132.922 41.6974 139.635 48.0658C141.193 49.5431 142.809 50.3526 144.944 50.3444C153.264 50.3123 161.585 50.3313 169.911 49.4949C162.193 49.4949 154.475 49.4436 146.759 49.5202C143.69 49.5507 141.246 48.5874 139.457 46.037C138.886 45.2223 138.306 44.2978 137.501 43.7802C129.174 38.4265 130.043 30.0504 130.171 21.8865C130.245 17.1594 133.677 17.5179 136.753 17.0132C139.966 22.6624 134.295 30.5577 141.9 34.5375C137.138 29.6396 139.331 23.614 139.41 18.0355C139.445 15.5547 142.317 15.5931 144.179 15.3543C153.925 14.1051 163.7 13.1703 174.013 13.7425ZM236.129 125.667C238.259 122.622 239.738 119.325 240.244 115.6C241.664 105.155 241.875 94.6602 240.172 84.2869C238.324 73.0299 230.139 65.9954 218.785 65.5724C185.82 64.3444 152.835 64.7592 119.858 64.8121C108.931 64.8296 100.868 71.7966 98.7318 82.5692C96.6429 93.1045 96.9513 103.888 98.2994 114.398C99.8808 126.728 107.971 134.119 119.012 134.272C151.653 134.723 184.298 134.915 216.943 135.057C224.448 135.089 230.937 132.349 236.129 125.667ZM244.516 73.6012C246.822 77.99 247.511 82.7136 247.482 87.6041C247.448 93.3797 247.474 99.1557 247.474 104.932C248.151 81.3643 249.292 76.048 243.185 71.2012C243.556 71.8932 243.87 72.4779 244.516 73.6012ZM123.201 145.383C124.375 147.097 125.799 147.555 127.247 145.842C128.414 144.462 127.566 143.195 126.283 142.591C124.198 141.611 123.2 142.74 123.201 145.383ZM146.803 38.7378C146.428 38.4405 146.053 38.1431 145.485 37.6927C148.969 42.8529 149.134 42.904 159.409 42.0342C155.142 40.9634 150.427 43.12 146.803 38.7378Z" fill="white"/>
</g>
<path d="M188.124 188.165C199.126 182.197 209.876 176.548 219.873 169.566C230.064 162.447 239.251 154.375 246.139 143.915C246.594 143.224 246.876 142.418 247.773 141.943C250.392 146.352 249.7 150.626 249.374 154.78C247.337 180.728 234.229 200.299 214.297 216.115C201.659 226.143 188.847 235.992 177.045 247.028C159.916 263.046 146.409 281.161 143.175 305.338C142.346 311.534 144.036 317.508 143.985 324.611C138.615 321.432 134.982 317.384 131.55 313.309C121.528 301.414 115.208 287.763 114.379 272.111C113.59 257.198 118.641 243.979 127.901 232.372C140.385 216.723 156.479 205.599 173.798 196.039C178.461 193.465 183.128 190.898 188.124 188.165ZM207.05 204.528C205.152 203.322 203.554 203.741 202.352 205.539C201.521 206.78 201.683 208.1 202.663 209.206C203.809 210.498 205.319 210.7 206.711 209.819C208.612 208.616 208.549 206.86 207.05 204.528ZM136.851 267.889C140.535 263.987 135.279 263.779 134.758 261.606C132.177 262.438 131.473 264.063 131.907 266.039C132.414 268.346 134.212 268.61 136.851 267.889Z" fill="white"/>
<path d="M154.6 253.751C153.933 253.616 153.441 253.36 153.123 252.983C152.807 252.593 152.71 252.097 152.831 251.496C152.926 251.026 153.091 250.651 153.324 250.371C153.57 250.095 153.967 249.814 154.514 249.53L163.941 244.579C164.245 244.423 164.46 244.269 164.585 244.118C164.727 243.956 164.823 243.751 164.873 243.503C164.963 243.058 164.733 242.781 164.184 242.67L156.186 241.054C155.938 241.003 155.744 240.917 155.606 240.794C155.483 240.66 155.442 240.495 155.481 240.299C155.566 239.881 155.882 239.727 156.431 239.838L164.606 241.49C165.273 241.625 165.765 241.88 166.083 242.258C166.402 242.635 166.499 243.13 166.375 243.745C166.277 244.228 166.106 244.602 165.863 244.866C165.632 245.132 165.243 245.407 164.696 245.691L155.245 250.658C154.957 250.803 154.743 250.957 154.601 251.119C154.473 251.284 154.383 251.49 154.333 251.738C154.243 252.183 154.492 252.464 155.081 252.583L163.569 254.298C163.817 254.348 164.003 254.44 164.125 254.574C164.251 254.694 164.294 254.853 164.254 255.049C164.212 255.258 164.108 255.4 163.943 255.476C163.778 255.551 163.572 255.564 163.323 255.514L154.6 253.751Z" fill="black"/>
<path d="M204.845 199.547L204.905 199.25C205.055 198.946 205.66 198.163 206.719 196.9C207.369 196.379 207.72 196.066 207.771 195.961C207.689 195.804 207.549 195.676 207.35 195.578L207.315 195.561L207.193 195.5C207.041 195.425 207.017 195.283 207.121 195.073C207.085 194.881 207.13 194.656 207.257 194.399C207.43 194.049 207.558 193.894 207.639 193.935L209.363 194.59L209.871 194.841C210.291 195.049 210.514 195.231 210.538 195.388C210.591 195.545 210.603 195.653 210.574 195.711C210.193 196.336 209.944 196.62 209.827 196.562C209.507 196.505 209.201 196.609 208.911 196.872C207.797 197.716 207.119 198.383 206.877 198.874L206.6 199.347C206.312 199.93 206.252 200.329 206.422 200.544C206.54 200.776 206.756 200.97 207.071 201.126L207.089 201.135C207.731 201.452 208.426 201.382 209.175 200.924C209.773 200.391 210.192 199.88 210.435 199.389C210.528 199.435 210.786 199.236 211.209 198.792C211.436 198.773 211.636 198.589 211.809 198.238C212.128 197.946 212.828 197.645 213.91 197.337L214.015 197.302L214.085 197.336C214.108 197.348 214.102 197.389 214.068 197.459L214.103 197.476C214.534 197.486 214.778 197.505 214.837 197.534C215.887 198.053 216.463 198.548 216.565 199.019C216.805 199.327 216.956 199.8 217.017 200.441C217.248 201.237 217.222 201.922 216.939 202.494L216.637 203.107C216.041 203.96 215.696 204.363 215.603 204.317C214.964 204.669 214.625 204.887 214.584 204.968C214.033 205.408 213.557 205.666 213.155 205.744L213.121 205.814C213.46 206.156 213.607 206.373 213.561 206.467C213.081 207.145 212.771 207.449 212.631 207.38C212.397 207.352 211.869 207.142 211.047 206.75L210.047 206.038C209.65 205.842 209.475 205.697 209.521 205.604L209.952 204.423C209.993 204.341 210.354 204.418 211.036 204.653L212.172 204.604C212.207 204.622 212.814 204.275 213.992 203.565C214.411 203.452 214.739 203.156 214.975 202.678L215.278 202.065C215.583 201.446 215.593 200.928 215.305 200.51C215.146 200.097 214.818 199.688 214.321 199.283L214.269 199.257C213.93 199.09 213.357 199.177 212.549 199.519C212.13 199.631 211.823 199.886 211.627 200.283C211.406 200.465 211.036 200.935 210.516 201.695L209.106 202.741L208.19 203.138C207.603 203.211 207.21 203.213 207.011 203.144L206.731 202.962L206.031 202.703C205.867 202.623 205.724 202.428 205.6 202.12C205.46 202.051 205.277 201.612 205.052 200.804C205.031 200.14 204.962 199.721 204.845 199.547ZM205.107 199.459L205.177 199.493C205.224 199.516 205.302 199.46 205.412 199.326C205.544 198.999 205.581 198.822 205.523 198.793L205.453 198.758C205.371 198.718 205.249 198.861 205.088 199.188C205.042 199.281 205.048 199.371 205.107 199.459ZM207.33 194.871L207.365 194.888C207.638 194.864 207.798 194.805 207.844 194.711C207.89 194.618 207.866 194.519 207.773 194.414L207.703 194.38C207.633 194.345 207.508 194.509 207.33 194.871ZM208.175 194.526L208.219 194.613L208.28 194.578L208.323 194.49L208.218 194.439L208.175 194.526ZM206.119 199.349C206.189 199.325 206.241 199.278 206.276 199.208C206.334 199.092 206.33 198.937 206.265 198.745L206.152 198.798L206.057 198.991C205.97 199.166 205.991 199.285 206.119 199.349ZM207.278 196.959L207.296 196.967C207.331 196.985 207.389 196.926 207.47 196.792L207.496 196.739L207.478 196.731C207.455 196.719 207.388 196.795 207.278 196.959ZM206.728 198.647L206.763 198.752C206.845 198.792 207.001 198.608 207.232 198.199L207.179 198.173C207.133 198.15 206.988 198.296 206.745 198.612L206.728 198.647ZM206.059 201.367L206.077 201.376L206.112 201.349L206.146 201.279C206.086 200.93 205.998 200.727 205.881 200.669L205.873 200.686L205.855 200.721C205.792 200.85 205.86 201.065 206.059 201.367ZM208.296 196.089L208.314 196.141C208.523 196.041 208.703 195.898 208.853 195.711L208.827 195.676L208.792 195.659C208.734 195.63 208.574 195.762 208.314 196.054L208.296 196.089ZM205.762 201.307L205.754 201.368L205.797 201.368L205.815 201.377L205.832 201.298L205.779 201.272L205.762 201.307ZM208.03 197.069L208.039 197.095L208.074 197.112C208.463 196.854 208.68 196.678 208.727 196.585L208.709 196.576C208.639 196.542 208.413 196.706 208.03 197.069ZM205.712 201.893L205.669 201.98L205.783 202.058L205.836 202.084L205.879 202.084L205.747 201.91L205.712 201.893ZM206.046 202.275L206.038 202.337C206.271 202.423 206.443 202.471 206.554 202.483L206.58 202.43L206.562 202.421L206.081 202.205L206.046 202.275ZM206.437 201.88L206.455 201.976L206.508 202.002L206.534 201.95L206.507 201.828L206.472 201.81L206.437 201.88ZM209.791 196.239L209.791 196.326C209.895 196.262 210.008 196.107 210.129 195.862L210.285 195.503L210.215 195.468C210.088 195.667 209.969 195.877 209.86 196.099L209.791 196.239ZM208.237 201.854L208.237 201.898L208.272 201.915L208.342 201.906L208.428 201.731L208.376 201.705C208.335 201.699 208.288 201.749 208.237 201.854ZM207.891 202.686L207.926 202.747L207.944 202.755L207.996 202.738L208.022 202.685L207.97 202.659L207.891 202.686ZM208.152 202.422L208.143 202.44L208.178 202.457C208.476 202.502 208.644 202.484 208.685 202.402L208.719 202.332L208.675 202.202L208.657 202.193C208.372 202.241 208.204 202.317 208.152 202.422ZM208.585 201.547L208.602 201.599L208.707 201.651L208.864 201.598L208.89 201.545L208.881 201.476L208.794 201.432C208.689 201.439 208.619 201.477 208.585 201.547ZM209.282 201.194L209.299 201.246L209.317 201.255C209.532 201.173 209.767 201.005 210.022 200.754L209.987 200.693C209.917 200.658 209.682 200.825 209.282 201.194ZM210.195 200.447C210.242 200.47 210.569 200.116 211.177 199.386L211.307 199.167L211.333 199.114L211.315 199.105C210.874 199.323 210.506 199.671 210.211 200.15C210.189 200.342 210.183 200.442 210.195 200.447ZM209.521 201.988L209.513 202.005C209.594 202.046 209.696 202.002 209.818 201.873L209.817 201.829C209.759 201.8 209.66 201.853 209.521 201.988ZM210.807 200.488L210.877 200.523L211.129 200.277L211.224 200.084L211.172 200.058C210.986 200.228 210.864 200.371 210.807 200.488ZM211.978 198.735L211.9 198.893L211.952 198.919C212.057 198.884 212.385 198.661 212.936 198.25C213.261 198.121 213.456 197.992 213.519 197.863L213.528 197.846L213.493 197.785C213.01 197.88 212.505 198.197 211.978 198.735ZM213.262 198.825L213.253 198.843L213.341 198.886C213.458 198.944 213.647 198.914 213.908 198.796L213.96 198.691L213.82 198.622C213.68 198.553 213.494 198.62 213.262 198.825ZM210.393 205.25L210.35 205.338L210.42 205.373L210.472 205.355L210.472 205.268L210.393 205.25ZM211.456 206.625L211.903 206.824L211.912 206.807C211.905 206.702 211.651 206.525 211.149 206.277L211.009 206.208L210.957 206.226L210.939 206.261C210.922 206.296 211.094 206.418 211.456 206.625ZM214.784 199.185L214.74 199.272L214.828 199.316L214.871 199.272L214.845 199.193L214.784 199.185ZM215.277 198.187L215.348 198.396L215.435 198.439L215.505 198.43L215.531 198.378C215.554 198.302 215.478 198.221 215.303 198.134L215.277 198.187ZM212.446 205.415L212.42 205.468L212.49 205.502C212.799 205.437 212.993 205.322 213.074 205.159L213.091 205.124L213.039 205.098C212.678 205.239 212.481 205.345 212.446 205.415ZM215.758 200.298L215.828 200.333L215.846 200.298C215.828 200.158 215.772 200.022 215.678 199.888L215.608 199.897C215.62 200.019 215.67 200.153 215.758 200.298ZM212.644 206.515L212.601 206.602L212.671 206.637L212.766 206.575L212.784 206.497L212.749 206.479L212.644 206.515ZM216.383 199.43L216.579 200.268L216.614 200.285C216.638 200.297 216.661 200.279 216.684 200.233C216.753 200.093 216.662 199.808 216.409 199.378L216.383 199.43ZM215.112 203.987L214.826 204.478L214.861 204.495C214.908 204.518 215.042 204.395 215.262 204.126L215.366 204.091L215.409 204.003C215.234 203.946 215.135 203.941 215.112 203.987ZM215.643 203.531L215.564 203.557L215.635 203.592L215.66 203.539L215.643 203.531ZM215.758 203.783L215.74 203.818L215.863 203.792L215.932 203.652L215.914 203.643C215.862 203.631 215.81 203.678 215.758 203.783ZM216.761 201.752L216.779 201.804L216.831 201.83L216.884 201.813L216.918 201.743C217.016 201.515 217.042 201.39 216.995 201.367L216.934 201.402L216.761 201.752ZM216.036 203.485C216.21 203.368 216.366 203.169 216.505 202.889L216.522 202.854L216.859 202.084L216.824 202.066C216.713 202.055 216.468 202.435 216.087 203.205C216.006 203.369 215.989 203.462 216.036 203.485Z" fill="black"/>
<path d="M133.955 249.057C133.781 249.904 133.558 250.603 133.288 251.154C133.019 251.718 132.663 252.147 132.22 252.439C131.779 252.745 131.203 252.95 130.49 253.053L130.262 251.469C131.212 251.332 131.909 251.077 132.354 250.703C132.8 250.342 133.11 249.738 133.284 248.891L133.436 248.122L132.862 248.204L128.753 240.31C128.566 239.947 128.434 239.736 128.359 239.68C128.281 239.61 128.135 239.578 127.92 239.582L126.894 239.608L126.817 239.074L131.33 238.423L131.407 238.957L130.415 239.222C130.232 239.262 130.133 239.323 130.118 239.406C130.103 239.489 130.189 239.712 130.376 240.076L133.74 246.582L135.144 239.368C135.207 238.968 135.221 238.737 135.185 238.675C135.163 238.611 135.05 238.58 134.849 238.582L133.802 238.612L133.725 238.077L137.348 237.555L137.425 238.089L136.432 238.354C136.238 238.409 136.113 238.474 136.056 238.549C136 238.625 135.933 238.864 135.856 239.265L133.955 249.057Z" fill="black"/>
<path d="M169.216 186.662C170.862 188.041 172.616 188.816 173.324 190.503C172.794 192.779 170.911 193.422 169.42 194.341C160.058 200.108 150.813 206.058 142.191 212.887C139.658 214.893 137.925 214.495 135.684 212.635C120.556 200.073 104.657 188.535 88.4199 177.462C85.401 175.404 83.9556 172.988 83.9903 169.197C84.0573 161.879 83.5457 154.557 83.4517 147.234C83.3868 142.176 84.5765 141.292 88.983 143.43C116.23 156.651 143.998 168.916 169.216 186.662ZM101.322 165.976C99.2374 168.269 98.853 170.743 101.079 173.053C102.646 174.679 104.768 174.585 106.619 173.485C108.932 172.111 108.764 169.768 108.009 167.712C106.937 164.794 104.687 164.252 101.322 165.976Z" fill="white"/>
<path d="M215.881 231.064C227.112 245.21 233.537 260.665 232.856 278.707C232.713 282.48 232.004 284.217 227.636 283.246C218.41 281.195 209.091 279.55 199.789 277.85C196.635 277.274 194.857 275.679 194.051 272.512C192.01 264.486 188.396 257.214 182.563 251.245C180.121 248.744 180.803 247.122 183.196 245.177C190.941 238.88 198.638 232.52 206.237 226.048C208.596 224.039 210.354 224.443 212.145 226.57C213.324 227.969 214.484 229.383 215.881 231.064ZM218.021 269.815C221.259 265.894 220.947 263.131 216.535 261.369C214.201 260.437 213.258 258.926 212.32 256.92C209.747 251.42 206.537 246.317 202.274 241.921C205.204 246.896 208.594 251.588 211.14 256.776C212.075 258.681 212.974 260.425 211.887 262.867C209.484 268.264 211.212 270.38 218.021 269.815Z" fill="white"/>
<path d="M178.404 275.393C194.536 280.385 210.573 284.003 226.915 286.174C231.018 286.719 232.405 288.348 231.235 292.468C229.09 300.023 226.341 307.301 222.644 314.236C221.181 316.982 219.461 318.037 216.224 316.911C193.702 309.078 177.086 294.092 164.296 274.411C163.784 273.624 163.144 272.724 164.025 271.242C168.813 271.741 173.252 274.157 178.404 275.393Z" fill="white"/>
<path d="M76.0901 47.7424C76.3156 43.6554 75.6232 40.6573 72.6285 37.9374C68.7894 34.4505 69.1973 27.9842 72.7856 24.4559C75.9977 21.2973 81.1454 21.3967 84.4685 24.6813C88.4683 28.6348 88.866 34.0794 84.6781 37.9774C81.8441 40.6153 81.505 43.4744 81.398 46.8871C80.7089 68.8541 80.6659 90.8255 80.7226 112.799C80.7264 114.266 80.5484 115.732 80.4422 117.4C75.7448 118.559 72.5524 116.068 69.6094 113.5C61.603 106.514 60.7573 97.038 61.4027 87.3767C62.0241 78.0746 64.8925 69.7006 73.7906 64.8073C75.6533 63.783 76.1125 62.1644 76.0905 60.1955C76.0458 56.1999 76.0864 52.2034 76.0901 47.7424ZM75.5838 93.1565C75.5838 96.4734 75.5838 99.7903 75.5838 103.107C75.8993 103.103 76.2149 103.099 76.5304 103.095C76.5304 97.4649 76.5304 91.8346 76.5304 86.2043C76.2132 86.1868 75.8961 86.1692 75.5789 86.1516C75.5789 88.1845 75.5789 90.2174 75.5838 93.1565Z" fill="white"/>
<path d="M252.658 31.2324C254.493 26.9852 257.332 24.5484 261.671 24.9779C265.502 25.3571 267.844 27.8717 269.016 31.5456C270.358 35.75 269.172 39.0334 265.665 41.579C265.53 41.6765 265.367 41.7401 265.249 41.8527C261.325 45.585 262.822 64.9925 267.329 67.8774C272.642 71.2778 275.188 76.3701 276.088 82.3225C277.722 93.1327 278.635 103.898 270.84 113.127C270.094 114.011 269.324 114.941 268.383 115.584C265.689 117.423 262.93 120.46 259.512 118.786C256.473 117.298 258.128 113.643 258.113 111.009C257.994 90.222 258.034 69.4339 258.113 48.6464C258.125 45.5429 257.869 42.9043 255.156 40.6852C252.403 38.4329 251.624 35.1525 252.658 31.2324ZM263.767 86.0076C263.774 90.956 264.011 95.9032 263.25 100.856C265.514 98.9069 265.723 80.0032 263.765 74.0744C263.765 78.4603 263.765 81.7477 263.767 86.0076ZM271.035 90.9786C271.035 88.3841 271.035 85.7896 271.035 83.1951C269.986 85.5506 269.934 87.828 270.01 90.1011C270.045 91.1354 270.336 92.161 270.511 93.1906C270.682 93.1574 270.853 93.1243 271.025 93.0911C271.025 92.5966 271.025 92.1021 271.035 90.9786Z" fill="white"/>
<path d="M78.7399 181.038C88.1667 188.507 97.325 195.722 106.436 202.997C108.202 204.406 109.783 205.344 112.291 204.635C116.063 203.571 118.504 205.712 119.329 209.182C120.051 212.221 118.169 214.411 115.371 215.262C111.837 216.337 109.497 214.39 108.528 211.175C107.842 208.897 106.428 207.522 104.696 206.17C94.9839 198.583 85.3608 190.879 75.5741 183.389C73.0243 181.438 72.1924 179.218 72.2187 176.135C72.3181 164.475 72.1177 152.812 72.2675 141.153C72.3139 137.538 71.5543 134.597 68.5216 132.465C68.3867 132.37 68.294 132.21 68.1539 132.129C56.9177 125.555 54.9045 115.166 55.4043 103.2C56.0364 88.0666 55.8498 72.8993 56.0256 57.7469C56.0645 54.3919 55.9419 51.2693 53.3977 48.4552C51.2286 46.056 51.651 43.0829 54.2015 40.9218C56.3629 39.0906 58.9291 39.0721 61.0806 40.8798C63.5819 42.9815 64.109 45.8176 62.0145 48.412C60.216 50.6399 59.5228 52.9239 59.5318 55.7236C59.5945 75.2137 59.6219 94.7045 59.5019 114.194C59.4807 117.635 60.2173 120.481 63.1243 122.415C73.9088 129.591 77.6443 139.482 75.9683 152.268C75.0236 159.475 75.8421 166.906 75.75 174.235C75.7168 176.879 76.0907 179.215 78.7399 181.038Z" fill="white"/>
<path d="M260.066 147.699C258.284 137.382 261.842 129.795 270.123 124.358C277.765 119.341 279.731 112.39 279.32 103.442C278.609 87.9909 279.096 72.4838 279.106 56.9999C279.108 54.0008 279.128 51.2637 276.552 48.8304C274.241 46.6467 274.521 43.5757 276.729 41.1823C278.888 38.8421 281.525 38.9125 283.879 40.8691C286.454 43.0084 286.767 46.1042 284.843 48.4641C282.571 51.2503 282.534 54.1759 282.542 57.3393C282.586 75.6536 282.539 93.9686 282.7 112.282C282.73 115.708 281.852 118.323 279.279 120.64C275.076 124.427 271.097 128.461 267.022 132.389C263.046 136.221 262.096 146.829 265.567 151.043C267.932 153.913 268.601 156.769 265.814 159.435C263.486 161.662 260.459 161.61 258.135 159.418C255.376 156.815 255.681 153.842 258.181 151.013C258.929 150.168 259.417 149.092 260.066 147.699Z" fill="white"/>
<path d="M214.307 161.186C215.729 165.204 212.703 164.511 210.901 164.555C204.586 164.712 198.264 164.616 191.945 164.623C175.813 164.64 159.682 164.675 143.551 164.665C141.335 164.664 138.844 165.166 137.553 162.641C138.086 160.4 139.727 160.524 141.167 160.524C164.781 160.513 188.396 160.53 212.01 160.564C212.658 160.565 213.306 160.822 214.307 161.186Z" fill="white"/>
<path d="M97.8344 25.9666C103.768 20.5904 109.459 15.4794 115.071 10.2824C117.183 8.32654 119.311 6.42999 122.319 6.2659C124.583 6.1424 125.283 4.539 126.24 2.95212C128.117 -0.159025 131.021 -0.749022 133.982 0.889528C136.845 2.474 137.472 5.39969 136.119 8.26999C134.671 11.3415 131.96 11.9053 128.937 10.5968C124.563 8.70404 120.988 9.79941 117.587 12.964C111.383 18.7378 105.007 24.3279 98.6815 29.9709C97.3688 31.142 96.2095 32.7248 93.8325 32.2756C92.6172 28.6652 96.0924 28.0181 97.8344 25.9666ZM132.223 3.76029C130.037 3.04456 129.063 4.09784 129.199 6.12763C129.27 7.1785 130.31 7.83588 131.388 7.54968C133.266 7.05142 133.509 5.75501 132.223 3.76029Z" fill="white"/>
<path d="M202.887 7.1023C202.638 3.41251 204.207 1.22522 207.417 0.62C210.526 0.0338488 212.456 1.87537 213.512 4.60828C214.107 6.14844 215.181 6.92264 216.608 7.59971C227.958 12.9822 235.493 23.0312 244.863 30.8404C245.385 31.2751 245.304 32.0516 244.709 32.8496C242.613 34.1262 241.57 32.0241 240.35 30.9635C233.95 25.3987 227.65 19.7188 221.293 14.1034C217.922 11.1249 214.462 9.18833 209.596 11.132C206.56 12.3447 204.186 10.5068 202.887 7.1023Z" fill="white"/>
<path d="M162.594 172.721C159.741 172.349 156.673 173.751 155.391 170.259C159.398 167.826 193.894 167.869 198.929 170.29C198.415 173.458 195.866 172.694 193.938 172.706C183.649 172.769 173.359 172.727 162.594 172.721Z" fill="white"/>
<path d="M169.933 176.397C174.851 176.427 179.329 176.431 183.805 176.539C185.116 176.571 186.694 176.733 186.739 178.504C186.783 180.277 185.253 180.559 183.914 180.575C179.272 180.633 174.629 180.618 169.987 180.56C168.62 180.543 167.153 180.159 166.894 178.612C166.582 176.747 168.169 176.621 169.933 176.397Z" fill="white"/>
<path d="M114.617 116.692C117.083 112.901 114.464 110.463 112.39 107.816C104.091 97.2249 106.421 83.0908 117.532 76.0772C126.309 70.5366 137.414 69.9881 146.464 74.648C155.872 79.4929 161.125 90.0747 158.91 99.7221C156.008 112.362 144.281 119.532 128.797 117.929C126.396 117.681 124.636 118.315 122.649 119.102C119.896 120.193 117.354 122.085 113.955 121.327C112.621 119.669 114.087 118.403 114.617 116.692ZM144.743 97.3393C146.02 95.0907 146.649 92.7785 143.01 91.8548C140.656 91.2572 140.076 93.0667 140.15 94.5795C140.248 96.5967 139.869 99.3264 144.743 97.3393Z" fill="white"/>
<path d="M214.149 120.989C198.366 121.181 187.841 114.889 184.353 103.455C181.096 92.7785 186.542 81.1748 197.172 76.3327C206.143 72.2469 214.967 72.5636 223.384 77.4109C232.54 82.683 235.893 90.3865 235.36 99.3115C235.098 103.701 233.735 108.195 230.044 111.466C226.145 114.92 225.212 118.217 228.136 122.311C228.722 123.132 229.157 124.181 228.059 125.486C222.9 125.773 219.385 121.995 214.149 120.989ZM200.146 99.8626C203.811 100.301 204.845 98.5689 204.265 96.0131C203.905 94.4271 202.379 93.0886 200.352 93.9967C197.421 95.3093 197.743 97.4042 200.146 99.8626Z" fill="white"/>
<path d="M166.217 120.308C164.977 119.666 163.988 119.317 163.287 118.661C161.093 116.605 158.498 114.125 159.654 111.1C160.659 108.469 164.043 109.644 166.419 109.55C169.72 109.419 173.04 109.385 176.335 109.585C180.568 109.841 181.454 111.669 179.437 115.48C177.193 119.718 173.186 121.272 166.217 120.308Z" fill="white"/>
<path d="M133.22 305.236L133.386 305.728L129.787 306.946L129.62 306.454L130.605 305.994C130.739 305.934 130.834 305.881 130.888 305.835C130.939 305.775 130.97 305.68 130.982 305.55C131.002 305.402 131.006 305.162 130.991 304.829L130.808 292.243L132.001 291.839L139.536 301.937C139.726 302.211 139.869 302.402 139.962 302.511C140.063 302.603 140.152 302.658 140.228 302.674C140.3 302.678 140.401 302.665 140.532 302.635L141.612 302.396L141.779 302.889L137.175 304.446L137.008 303.954L138.012 303.487C138.206 303.394 138.296 303.307 138.283 303.227C138.278 303.13 138.134 302.89 137.849 302.508L136.252 300.346L131.63 301.91L131.673 304.598C131.68 305.074 131.704 305.354 131.747 305.439C131.798 305.506 131.928 305.518 132.139 305.475L133.22 305.236ZM131.614 301.24L135.858 299.804L131.505 293.929L131.614 301.24Z" fill="black"/>
<path d="M231.022 178.225C230.56 177.908 230.143 177.597 229.769 177.292C229.389 176.999 228.942 176.579 228.428 176.032C228.4 175.883 228.406 175.734 228.445 175.582C228.502 175.428 228.55 175.323 228.588 175.268C228.641 175.191 228.683 175.164 228.716 175.187C228.804 175.247 228.972 175.427 229.219 175.726C229.474 176.014 229.904 176.366 230.509 176.781C231.267 177.302 232.009 177.658 232.735 177.849C233.469 178.029 234.136 178.034 234.738 177.865C235.339 177.696 235.829 177.336 236.206 176.787C236.47 176.402 236.587 175.997 236.555 175.571C236.532 175.134 236.408 174.702 236.185 174.273C235.98 173.842 235.719 173.444 235.402 173.081C235.093 172.707 234.775 172.392 234.45 172.136C234.016 172.744 233.576 173.315 233.128 173.849C232.688 174.372 232.287 174.816 231.923 175.181C231.567 175.534 231.297 175.762 231.115 175.863C231.007 175.902 230.878 175.902 230.726 175.863C230.575 175.824 230.472 175.786 230.417 175.748C230.34 175.695 230.313 175.652 230.336 175.619C230.617 175.327 230.954 174.944 231.345 174.468C231.747 174 232.148 173.475 232.548 172.892C233.106 172.079 233.626 171.239 234.108 170.373C234.589 169.507 234.956 168.667 235.207 167.853C235.466 167.028 235.53 166.287 235.398 165.631L236.833 164.99C237.006 165.61 237.284 166.182 237.669 166.705C238.054 167.228 238.466 167.712 238.903 168.158C239.352 168.612 239.757 169.035 240.117 169.429C240.489 169.829 240.739 170.219 240.867 170.598C241.003 170.966 240.938 171.343 240.674 171.727C240.508 171.969 240.243 172.143 239.879 172.249C239.534 172.352 239.143 172.415 238.706 172.438C238.277 172.451 237.857 172.438 237.447 172.399C237.056 172.357 236.722 172.313 236.445 172.269C236.168 172.224 236.01 172.196 235.969 172.185C236.891 172.915 237.545 173.647 237.931 174.38C238.327 175.122 238.51 175.821 238.479 176.479C238.466 177.134 238.29 177.708 237.951 178.203C237.581 178.742 237.052 179.147 236.364 179.418C235.695 179.687 234.904 179.742 233.993 179.586C233.089 179.418 232.099 178.964 231.022 178.225ZM235.293 170.944C235.853 171.07 236.368 171.132 236.838 171.131C237.308 171.13 237.702 171.086 238.021 170.998C238.352 170.917 238.558 170.816 238.641 170.695C238.754 170.531 238.751 170.335 238.633 170.107C238.521 169.869 238.351 169.623 238.121 169.368C237.91 169.11 237.69 168.854 237.46 168.599C237.249 168.341 237.092 168.111 236.987 167.91C236.991 167.929 236.948 168.037 236.861 168.236C236.791 168.431 236.635 168.752 236.393 169.2C236.157 169.637 235.791 170.218 235.293 170.944Z" fill="black"/>
<path d="M94.7896 164.89L86.9591 154.664L94.0889 149.204L95.1224 150.554L89.7234 154.688L92.0945 157.785L96.9059 154.101L97.9273 155.434L93.1159 159.119L95.4991 162.231L100.898 158.097L101.919 159.431L94.7896 164.89Z" fill="black"/>
<path d="M113.85 190.042C113.163 189.051 112.698 188.296 112.456 187.777C112.222 187.248 112.141 186.935 112.213 186.84C112.302 186.723 112.471 186.533 112.721 186.271C112.981 186.016 113.341 185.586 113.801 184.981L115.301 183.006C115.462 182.794 115.662 182.552 115.901 182.282C116.148 182.001 116.37 181.775 116.565 181.606L115.976 181.158L115.982 179.43L116.287 179.26L117.785 180.397C117.838 180.438 117.873 180.59 117.89 180.854C117.926 181.115 117.949 181.393 117.961 181.686C118.34 181.539 118.727 181.515 119.121 181.613C119.526 181.72 119.898 181.902 120.238 182.16C120.408 182.289 120.527 182.397 120.596 182.482L120.546 184.202L120.273 184.296C119.538 183.721 118.877 183.445 118.29 183.468C117.703 183.491 117.107 183.901 116.503 184.698L115.208 186.402C114.805 186.933 114.474 187.335 114.217 187.608C113.978 187.878 113.822 188.061 113.749 188.157C113.701 188.221 113.678 188.295 113.68 188.38C113.69 188.455 113.751 188.585 113.862 188.77C113.983 188.962 114.168 189.27 114.416 189.693L113.85 190.042Z" fill="black"/>
<path d="M142.511 186.328L150.959 179.859L152.941 182.448L152.528 182.764L150.791 181.449C150.662 181.346 150.556 181.285 150.473 181.264C150.393 181.225 150.296 181.241 150.182 181.311C150.06 181.371 149.872 181.498 149.617 181.693L147.823 183.067L154.717 192.07C155.001 192.441 155.183 192.646 155.264 192.685C155.344 192.724 155.477 192.69 155.663 192.581L156.609 192.008L156.925 192.42L153.098 195.351L152.782 194.938L153.582 194.174C153.736 194.023 153.804 193.904 153.787 193.816C153.77 193.728 153.62 193.499 153.336 193.128L146.442 184.125L144.631 185.511C144.388 185.697 144.216 185.846 144.116 185.956C144.018 186.048 143.972 186.142 143.979 186.237C143.987 186.315 144.025 186.429 144.09 186.58L144.906 188.6L144.493 188.916L142.511 186.328Z" fill="black"/>
<path d="M217.28 243.66L217.726 244.863L218.447 244.164C218.892 243.745 219.289 243.331 219.637 242.922C220 242.501 220.202 242.186 220.241 241.977C220.305 241.636 220.003 241.403 219.335 241.278L219.34 241.034L222.956 241.713L222.873 241.941C222.48 241.868 222.15 241.853 221.884 241.898C221.633 241.933 221.381 242.048 221.127 242.245C220.876 242.428 220.566 242.703 220.199 243.068C219.832 243.433 219.35 243.906 218.753 244.485L217.888 245.3L218.771 247.643C219.088 248.489 219.368 249.125 219.614 249.551C219.86 249.977 220.116 250.276 220.382 250.448C220.651 250.607 220.962 250.719 221.316 250.786L221.311 251.029L216.672 250.159L216.755 249.93C217.122 249.999 217.383 250.021 217.537 249.996C217.704 249.973 217.803 249.876 217.835 249.706C217.877 249.483 217.837 249.191 217.715 248.828C217.595 248.453 217.43 247.995 217.22 247.454L216.726 246.181L216.129 246.761C215.684 247.179 215.28 247.598 214.916 248.019C214.568 248.428 214.374 248.738 214.335 248.947C214.303 249.118 214.344 249.261 214.458 249.377C214.574 249.481 214.809 249.565 215.163 249.632L215.158 249.875L211.521 249.193L211.605 248.964C211.998 249.038 212.327 249.059 212.59 249.027C212.857 248.982 213.122 248.869 213.386 248.688C213.654 248.494 213.977 248.216 214.357 247.853C214.737 247.49 215.226 247.019 215.823 246.439L216.568 245.724L215.729 243.47C215.402 242.609 215.118 241.952 214.877 241.5C214.652 241.037 214.427 240.717 214.203 240.539C213.981 240.348 213.706 240.222 213.378 240.16L213.383 239.917L217.629 240.714L217.546 240.942C217.205 240.878 216.951 240.858 216.784 240.881C216.63 240.906 216.536 241.01 216.501 241.194C216.489 241.259 216.519 241.428 216.59 241.699C216.677 241.959 216.782 242.264 216.907 242.613C217.044 242.964 217.169 243.313 217.28 243.66Z" fill="black"/>
<path d="M173.594 207.948C172.974 208.34 172.653 208.905 172.632 209.645C172.614 210.366 172.976 211.312 173.717 212.484L174.358 213.498C175.106 214.682 175.813 215.426 176.479 215.73C177.149 216.017 177.873 215.914 178.651 215.422C179.18 215.087 179.523 214.682 179.679 214.204C179.835 213.727 179.759 213.121 179.451 212.384L180.507 212.072C180.789 212.966 180.759 213.742 180.418 214.4C180.076 215.057 179.573 215.596 178.908 216.017C177.691 216.786 176.539 216.986 175.454 216.616C174.372 216.227 173.428 215.396 172.623 214.122L172.409 213.784C171.611 212.522 171.272 211.324 171.392 210.192C171.505 209.048 172.125 208.119 173.252 207.407C173.973 206.951 174.66 206.714 175.311 206.697C175.974 206.672 176.56 206.838 177.069 207.194C177.571 207.539 177.959 208.028 178.232 208.66L177.025 209.707C176.579 208.727 176.056 208.087 175.457 207.788C174.868 207.481 174.248 207.535 173.594 207.948Z" fill="black"/>
<path d="M213.349 312.249L213.833 311.49C213.962 311.288 214.19 311.006 214.346 310.797C212.755 311.395 211.387 311.234 209.886 310.277C208.655 309.492 207.886 308.503 207.613 307.333C207.295 305.897 207.662 304.28 208.662 302.712C210.544 299.761 213.391 298.944 216.004 300.611C217.505 301.568 218.32 302.894 218.39 304.457C218.492 304.261 218.492 304.261 218.658 303.963C218.716 303.835 218.888 303.565 219.06 303.295L220.362 301.255C220.889 300.429 221.199 299.867 221.523 299.173L223.26 300.281C222.724 300.935 222.357 301.436 221.862 302.212L216.151 311.166C215.592 312.043 215.303 312.57 214.968 313.281L213.349 312.249ZM215.351 302.044C213.564 300.904 211.646 301.531 210.28 303.673C209.43 305.005 209.145 306.27 209.437 307.263C209.657 307.996 210.175 308.635 210.883 309.086C212.805 310.312 214.956 309.692 216.333 307.534C217.011 306.471 217.282 305.34 217.063 304.417C216.85 303.451 216.245 302.614 215.351 302.044Z" fill="black"/>
<path d="M174.063 280.905C173.833 281.127 173.572 281.24 173.279 281.245C172.987 281.231 172.725 281.104 172.494 280.864C172.271 280.634 172.162 280.377 172.167 280.095C172.181 279.803 172.304 279.545 172.534 279.323C172.764 279.1 173.02 278.992 173.303 278.996C173.595 278.992 173.853 279.105 174.075 279.335C174.307 279.574 174.42 279.845 174.415 280.147C174.41 280.429 174.293 280.682 174.063 280.905ZM174.313 284.53L173.938 284.141L176.224 281.931L181.979 287.884C182.303 288.219 182.508 288.402 182.592 288.432C182.676 288.461 182.805 288.412 182.977 288.283L183.851 287.604L184.212 287.978L180.819 291.259L180.457 290.885L181.165 290.034C181.3 289.867 181.354 289.74 181.327 289.655C181.3 289.57 181.124 289.359 180.8 289.024L176.171 284.236C175.846 283.9 175.642 283.718 175.558 283.688C175.473 283.658 175.345 283.708 175.173 283.837L174.313 284.53Z" fill="black"/>
<path d="M185.218 446.595C186.755 450.736 187.717 454.429 182.692 456.791C180.553 457.796 181.286 460.078 181.856 462.139C182.929 466.025 178.611 470.085 174.861 468.568C171.979 467.403 170.613 468.386 169.169 470.655C166.335 475.109 161.5 475.043 158.818 470.472C157.377 468.014 155.667 467.025 153.127 468.497C150.853 469.815 149.451 468.675 147.912 467.201C146.255 465.616 144.96 464.198 146.218 461.616C147.482 459.023 146.951 457.002 143.917 455.622C140.176 453.919 139.979 448.04 143.64 446.174C146.681 444.624 147.198 442.926 146.165 439.79C144.902 435.96 149.305 431.683 152.928 433.184C155.885 434.409 157.479 433.628 159.127 431.14C161.947 426.883 165.899 426.992 168.797 431.236C170.249 433.362 171.882 434.958 174.525 433.221C177.104 431.526 178.455 433.389 180.069 434.801C181.675 436.204 182.949 437.658 181.689 439.934C179.654 443.61 181.149 445.543 185.218 446.595ZM154.699 446.618C152.642 450.695 153.613 454.44 156.41 457.627C158.968 460.541 162.4 461.732 166.292 460.687C170.945 459.437 173.67 456.449 173.991 451.53C174.315 446.562 171.789 442.73 167.237 441.174C162.241 439.466 158.73 440.843 154.699 446.618Z" fill="white"/>
<path d="M35.4713 465V436.2H46.1113C48.1646 436.2 49.9113 436.533 51.3513 437.2C52.7913 437.867 53.8846 438.8 54.6312 440C55.4046 441.173 55.7913 442.573 55.7913 444.2C55.7913 445.827 55.4046 447.253 54.6312 448.48C53.8846 449.68 52.7913 450.627 51.3513 451.32C49.9113 451.987 48.1646 452.32 46.1113 452.32H37.8713V449.44H45.9913C48.1246 449.44 49.7379 448.973 50.8313 448.04C51.9513 447.107 52.5113 445.827 52.5113 444.2C52.5113 442.6 51.9646 441.347 50.8713 440.44C49.7779 439.533 48.1513 439.08 45.9913 439.08H38.7513V465H35.4713ZM52.3513 465L37.0312 450.72H41.5113L57.3113 465H52.3513ZM82.0091 465.4C80.0091 465.4 78.1691 465.04 76.4891 464.32C74.8357 463.573 73.3957 462.533 72.1691 461.2C70.9424 459.84 69.9824 458.253 69.2891 456.44C68.6224 454.627 68.2891 452.64 68.2891 450.48C68.2891 447.627 68.8757 445.093 70.0491 442.88C71.2224 440.667 72.8357 438.933 74.8891 437.68C76.9691 436.427 79.3291 435.8 81.9691 435.8C84.6624 435.8 87.0357 436.427 89.0891 437.68C91.1691 438.933 92.7957 440.667 93.9691 442.88C95.1424 445.093 95.7291 447.64 95.7291 450.52C95.7291 452.68 95.3824 454.667 94.6891 456.48C94.0224 458.293 93.0757 459.867 91.8491 461.2C90.6224 462.533 89.1691 463.573 87.4891 464.32C85.8091 465.04 83.9824 465.4 82.0091 465.4ZM81.9691 462.44C84.0224 462.44 85.8224 461.933 87.3691 460.92C88.9424 459.88 90.1691 458.453 91.0491 456.64C91.9291 454.827 92.3691 452.76 92.3691 450.44C92.3691 448.147 91.9291 446.12 91.0491 444.36C90.1957 442.6 88.9824 441.227 87.4091 440.24C85.8624 439.253 84.0491 438.76 81.9691 438.76C79.8891 438.76 78.0757 439.253 76.5291 440.24C74.9824 441.227 73.7824 442.6 72.9291 444.36C72.0757 446.093 71.6491 448.12 71.6491 450.44C71.6491 452.787 72.0757 454.867 72.9291 456.68C73.8091 458.467 75.0224 459.88 76.5691 460.92C78.1157 461.933 79.9157 462.44 81.9691 462.44ZM111.342 465V462.28H120.542C122.302 462.28 123.702 461.8 124.742 460.84C125.782 459.88 126.302 458.587 126.302 456.96C126.302 455.227 125.756 453.84 124.662 452.8C123.569 451.76 122.102 451.24 120.262 451.24H111.342V448.6H119.822C121.636 448.6 123.049 448.16 124.062 447.28C125.076 446.4 125.582 445.16 125.582 443.56C125.582 442.067 125.102 440.92 124.142 440.12C123.209 439.32 121.836 438.92 120.022 438.92H111.342V436.2H120.302C122.942 436.2 125.022 436.827 126.542 438.08C128.089 439.333 128.862 441.04 128.862 443.2C128.862 444.56 128.556 445.773 127.942 446.84C127.329 447.907 126.489 448.747 125.422 449.36C124.356 449.947 123.129 450.24 121.742 450.24L121.942 449.4C123.409 449.4 124.716 449.747 125.862 450.44C127.036 451.133 127.956 452.08 128.622 453.28C129.316 454.453 129.662 455.8 129.662 457.32C129.662 458.84 129.289 460.187 128.542 461.36C127.822 462.507 126.796 463.4 125.462 464.04C124.129 464.68 122.582 465 120.822 465H111.342ZM109.182 465V436.2H112.462V465H109.182ZM162.908 465.4C160.908 465.4 159.068 465.04 157.388 464.32C155.734 463.573 154.294 462.533 153.067 461.2C151.841 459.84 150.881 458.253 150.188 456.44C149.521 454.627 149.188 452.64 149.188 450.48C149.188 447.627 149.774 445.093 150.948 442.88C152.121 440.667 153.734 438.933 155.788 437.68C157.868 436.427 160.228 435.8 162.868 435.8C165.561 435.8 167.934 436.427 169.988 437.68C172.068 438.933 173.694 440.667 174.868 442.88C176.041 445.093 176.628 447.64 176.628 450.52C176.628 452.68 176.281 454.667 175.588 456.48C174.921 458.293 173.974 459.867 172.748 461.2C171.521 462.533 170.068 463.573 168.388 464.32C166.708 465.04 164.881 465.4 162.908 465.4ZM162.868 462.44C164.921 462.44 166.721 461.933 168.268 460.92C169.841 459.88 171.068 458.453 171.948 456.64C172.828 454.827 173.268 452.76 173.268 450.44C173.268 448.147 172.828 446.12 171.948 444.36C171.094 442.6 169.881 441.227 168.307 440.24C166.761 439.253 164.948 438.76 162.868 438.76C160.788 438.76 158.974 439.253 157.428 440.24C155.881 441.227 154.681 442.6 153.828 444.36C152.974 446.093 152.548 448.12 152.548 450.44C152.548 452.787 152.974 454.867 153.828 456.68C154.708 458.467 155.921 459.88 157.467 460.92C159.014 461.933 160.814 462.44 162.868 462.44ZM205.968 465V439.08H196.088V436.2H219.128V439.08H209.248V465H205.968ZM232.034 465V436.2H235.314V465H232.034ZM262.398 465.4C260.424 465.4 258.598 465.04 256.918 464.32C255.264 463.573 253.824 462.547 252.598 461.24C251.371 459.907 250.424 458.347 249.758 456.56C249.091 454.747 248.758 452.76 248.758 450.6C248.758 448.44 249.091 446.467 249.758 444.68C250.424 442.867 251.358 441.307 252.558 440C253.784 438.667 255.224 437.64 256.878 436.92C258.558 436.173 260.384 435.8 262.358 435.8C264.518 435.8 266.451 436.24 268.158 437.12C269.891 438 271.304 439.24 272.398 440.84C273.518 442.44 274.211 444.307 274.478 446.44H271.198C270.878 444.067 269.931 442.2 268.358 440.84C266.811 439.453 264.824 438.76 262.398 438.76C260.344 438.76 258.544 439.267 256.998 440.28C255.451 441.267 254.251 442.653 253.398 444.44C252.544 446.2 252.118 448.253 252.118 450.6C252.118 452.947 252.544 455.013 253.398 456.8C254.251 458.56 255.451 459.947 256.998 460.96C258.544 461.947 260.331 462.44 262.358 462.44C264.838 462.44 266.864 461.747 268.438 460.36C270.038 458.973 270.984 457.107 271.278 454.76H274.558C274.291 456.893 273.598 458.76 272.478 460.36C271.384 461.96 269.971 463.2 268.238 464.08C266.531 464.96 264.584 465.4 262.398 465.4ZM297.614 465.36C294.254 465.36 291.574 464.533 289.574 462.88C287.601 461.227 286.441 458.867 286.094 455.8H289.294C289.587 458.013 290.427 459.68 291.814 460.8C293.201 461.92 295.121 462.48 297.574 462.48C299.654 462.48 301.214 462.093 302.254 461.32C303.321 460.52 303.854 459.36 303.854 457.84C303.854 456.533 303.494 455.493 302.774 454.72C302.054 453.947 300.934 453.307 299.414 452.8L294.574 451.12C292.121 450.267 290.307 449.24 289.134 448.04C287.961 446.813 287.374 445.267 287.374 443.4C287.374 441.853 287.761 440.52 288.534 439.4C289.307 438.253 290.401 437.36 291.814 436.72C293.227 436.08 294.867 435.76 296.734 435.76C299.614 435.76 301.921 436.52 303.654 438.04C305.387 439.533 306.387 441.667 306.654 444.44H303.454C303.107 442.44 302.387 440.973 301.294 440.04C300.227 439.107 298.681 438.64 296.654 438.64C294.734 438.64 293.241 439.027 292.174 439.8C291.107 440.573 290.574 441.667 290.574 443.08C290.574 444.28 290.947 445.24 291.694 445.96C292.441 446.68 293.601 447.307 295.174 447.84L300.334 449.64C302.574 450.413 304.254 451.467 305.374 452.8C306.494 454.107 307.054 455.773 307.054 457.8C307.054 460.2 306.227 462.067 304.574 463.4C302.947 464.707 300.627 465.36 297.614 465.36Z" fill="white"/>
<path d="M21.4 392L45.112 330.176H64.216L87.928 392H69.112L63.928 378.848H45.304L40.216 392H21.4ZM47.704 365.888H61.528L54.616 347.744L47.704 365.888ZM137.391 415.232C132.079 415.232 128.175 414.016 125.679 411.584C123.183 409.152 121.935 405.376 121.935 400.256V390.368C120.463 391.2 118.703 391.84 116.655 392.288C114.607 392.736 112.527 392.96 110.415 392.96C103.631 392.96 98.2553 391.136 94.2873 387.488C90.3833 383.84 88.4313 377.952 88.4313 369.824C88.4313 361.632 90.3513 355.552 94.1913 351.584C98.0313 347.552 103.247 345.536 109.839 345.536C112.847 345.536 115.407 345.952 117.519 346.784C119.631 347.552 121.583 348.672 123.375 350.144L124.335 346.496H139.983V398.144C139.983 399.68 140.239 400.736 140.751 401.312C141.327 401.888 142.351 402.176 143.823 402.176C145.295 402.176 146.735 401.92 148.143 401.408V413.312C146.543 413.952 144.975 414.432 143.439 414.752C141.903 415.072 139.887 415.232 137.391 415.232ZM114.927 379.808C116.463 379.808 117.775 379.616 118.863 379.232C119.951 378.848 120.975 378.272 121.935 377.504V361.376C120.911 360.48 119.855 359.808 118.767 359.36C117.743 358.912 116.495 358.688 115.023 358.688C112.335 358.688 110.287 359.552 108.879 361.28C107.535 363.008 106.863 365.76 106.863 369.536C106.863 373.44 107.567 376.128 108.975 377.6C110.383 379.072 112.367 379.808 114.927 379.808ZM168.152 392.96C162.072 392.96 157.656 391.424 154.904 388.352C152.152 385.28 150.776 381.12 150.776 375.872V359.84H144.824V346.496H150.776V337.184L168.824 332.864V346.496H179.288L178.616 359.84H168.824V374.528C168.824 376.448 169.304 377.824 170.264 378.656C171.224 379.424 172.696 379.808 174.68 379.808C176.536 379.808 178.424 379.488 180.344 378.848V390.848C176.952 392.256 172.888 392.96 168.152 392.96ZM199.341 392.96C196.461 392.96 193.773 392.448 191.277 391.424C188.845 390.4 186.893 388.8 185.421 386.624C183.949 384.448 183.213 381.696 183.213 378.368C183.213 373.568 184.813 369.856 188.013 367.232C191.213 364.544 196.045 363.2 202.509 363.2H214.317V362.336C214.317 360.544 213.581 359.232 212.109 358.4C210.637 357.568 208.045 357.152 204.333 357.152C199.085 357.152 193.901 357.952 188.781 359.552V348.704C191.085 347.808 193.965 347.072 197.421 346.496C200.877 345.856 204.397 345.536 207.981 345.536C215.213 345.536 220.941 347.008 225.165 349.952C229.389 352.896 231.5 357.568 231.5 363.968V392H215.757L214.893 388.352C213.293 389.76 211.213 390.88 208.653 391.712C206.157 392.544 203.053 392.96 199.341 392.96ZM205.484 382.4C207.533 382.4 209.261 382.048 210.669 381.344C212.141 380.64 213.357 379.776 214.317 378.752V373.088H205.581C201.613 373.088 199.629 374.656 199.629 377.792C199.629 380.864 201.581 382.4 205.484 382.4ZM257.455 392.96C253.551 392.96 249.871 392.672 246.415 392.096C243.023 391.584 240.335 390.912 238.351 390.08V377.12C240.591 378.144 243.247 378.944 246.319 379.52C249.455 380.096 252.111 380.384 254.287 380.384C256.591 380.384 258.319 380.32 259.471 380.192C260.687 380.064 261.295 379.52 261.295 378.56C261.295 377.472 260.239 376.64 258.127 376.064C256.015 375.488 253.359 374.656 250.159 373.568C245.999 372.096 242.895 370.368 240.847 368.384C238.799 366.4 237.775 363.52 237.775 359.744C237.775 355.2 239.567 351.712 243.151 349.28C246.735 346.784 252.367 345.536 260.047 345.536C262.991 345.536 266.031 345.76 269.167 346.208C272.303 346.656 274.767 347.168 276.559 347.744V360.416C274.639 359.584 272.527 358.976 270.223 358.592C267.983 358.208 265.935 358.016 264.079 358.016C262.031 358.016 260.207 358.112 258.607 358.304C257.007 358.496 256.207 359.04 256.207 359.936C256.207 360.96 257.103 361.696 258.895 362.144C260.751 362.592 263.215 363.296 266.287 364.256C269.743 365.28 272.431 366.4 274.351 367.616C276.335 368.832 277.711 370.304 278.479 372.032C279.311 373.76 279.727 375.904 279.727 378.464C279.727 383.072 277.839 386.656 274.063 389.216C270.351 391.712 264.815 392.96 257.455 392.96ZM297.428 408.896C294.868 408.896 292.692 408.736 290.9 408.416C289.172 408.16 287.444 407.712 285.716 407.072V394.784C286.74 395.168 287.7 395.424 288.596 395.552C289.556 395.68 290.548 395.744 291.572 395.744C294.132 395.744 295.988 395.424 297.14 394.784C298.356 394.144 299.572 392.864 300.788 390.944L280.244 346.496H299.156L309.812 373.28L320.18 346.496H338.996L322.196 387.68C319.572 394.144 316.34 399.296 312.5 403.136C308.724 406.976 303.7 408.896 297.428 408.896Z" fill="white"/>
<defs>
<filter id="filter0_d_2062_6916" x="79.4941" y="13.5703" width="179.705" height="150.349" filterUnits="userSpaceOnUse" color-interpolation-filters="sRGB">
<feFlood flood-opacity="0" result="BackgroundImageFix"/>
<feColorMatrix in="SourceAlpha" type="matrix" values="0 0 0 0 0 0 0 0 0 0 0 0 0 0 0 0 0 0 127 0" result="hardAlpha"/>
<feOffset dy="4"/>
<feGaussianBlur stdDeviation="2"/>
<feComposite in2="hardAlpha" operator="out"/>
<feColorMatrix type="matrix" values="0 0 0 0 0 0 0 0 0 0 0 0 0 0 0 0 0 0 0.25 0"/>
<feBlend mode="normal" in2="BackgroundImageFix" result="effect1_dropShadow_2062_6916"/>
<feBlend mode="normal" in="SourceGraphic" in2="effect1_dropShadow_2062_6916" result="shape"/>
</filter>
</defs>
</svg>
