<svg width="333" height="181" viewBox="0 0 333 181" fill="none" xmlns="http://www.w3.org/2000/svg">
<path d="M14.4 106L38.112 44.176H57.216L80.928 106H62.112L56.928 92.848H38.304L33.216 106H14.4ZM40.704 79.888H54.528L47.616 61.744L40.704 79.888ZM130.391 129.232C125.079 129.232 121.175 128.016 118.679 125.584C116.183 123.152 114.935 119.376 114.935 114.256V104.368C113.463 105.2 111.703 105.84 109.655 106.288C107.607 106.736 105.527 106.96 103.415 106.96C96.6313 106.96 91.2553 105.136 87.2873 101.488C83.3833 97.84 81.4313 91.952 81.4313 83.824C81.4313 75.632 83.3513 69.552 87.1913 65.584C91.0313 61.552 96.2473 59.536 102.839 59.536C105.847 59.536 108.407 59.952 110.519 60.784C112.631 61.552 114.583 62.672 116.375 64.144L117.335 60.496H132.983V112.144C132.983 113.68 133.239 114.736 133.751 115.312C134.327 115.888 135.351 116.176 136.823 116.176C138.295 116.176 139.735 115.92 141.143 115.408V127.312C139.543 127.952 137.975 128.432 136.439 128.752C134.903 129.072 132.887 129.232 130.391 129.232ZM107.927 93.808C109.463 93.808 110.775 93.616 111.863 93.232C112.951 92.848 113.975 92.272 114.935 91.504V75.376C113.911 74.48 112.855 73.808 111.767 73.36C110.743 72.912 109.495 72.688 108.023 72.688C105.335 72.688 103.287 73.552 101.879 75.28C100.535 77.008 99.8633 79.76 99.8633 83.536C99.8633 87.44 100.567 90.128 101.975 91.6C103.383 93.072 105.367 93.808 107.927 93.808ZM161.152 106.96C155.072 106.96 150.656 105.424 147.904 102.352C145.152 99.28 143.776 95.12 143.776 89.872V73.84H137.824V60.496H143.776V51.184L161.824 46.864V60.496H172.288L171.616 73.84H161.824V88.528C161.824 90.448 162.304 91.824 163.264 92.656C164.224 93.424 165.696 93.808 167.68 93.808C169.536 93.808 171.424 93.488 173.344 92.848V104.848C169.952 106.256 165.888 106.96 161.152 106.96ZM192.341 106.96C189.461 106.96 186.773 106.448 184.277 105.424C181.845 104.4 179.893 102.8 178.421 100.624C176.949 98.448 176.213 95.696 176.213 92.368C176.213 87.568 177.813 83.856 181.013 81.232C184.213 78.544 189.045 77.2 195.509 77.2H207.317V76.336C207.317 74.544 206.581 73.232 205.109 72.4C203.637 71.568 201.045 71.152 197.333 71.152C192.085 71.152 186.901 71.952 181.781 73.552V62.704C184.085 61.808 186.965 61.072 190.421 60.496C193.877 59.856 197.397 59.536 200.981 59.536C208.213 59.536 213.941 61.008 218.165 63.952C222.389 66.896 224.5 71.568 224.5 77.968V106H208.757L207.893 102.352C206.293 103.76 204.213 104.88 201.653 105.712C199.157 106.544 196.053 106.96 192.341 106.96ZM198.484 96.4C200.533 96.4 202.261 96.048 203.669 95.344C205.141 94.64 206.357 93.776 207.317 92.752V87.088H198.581C194.613 87.088 192.629 88.656 192.629 91.792C192.629 94.864 194.581 96.4 198.484 96.4ZM250.455 106.96C246.551 106.96 242.871 106.672 239.415 106.096C236.023 105.584 233.335 104.912 231.351 104.08V91.12C233.591 92.144 236.247 92.944 239.319 93.52C242.455 94.096 245.111 94.384 247.287 94.384C249.591 94.384 251.319 94.32 252.471 94.192C253.687 94.064 254.295 93.52 254.295 92.56C254.295 91.472 253.239 90.64 251.127 90.064C249.015 89.488 246.359 88.656 243.159 87.568C238.999 86.096 235.895 84.368 233.847 82.384C231.799 80.4 230.775 77.52 230.775 73.744C230.775 69.2 232.567 65.712 236.151 63.28C239.735 60.784 245.367 59.536 253.047 59.536C255.991 59.536 259.031 59.76 262.167 60.208C265.303 60.656 267.767 61.168 269.559 61.744V74.416C267.639 73.584 265.527 72.976 263.223 72.592C260.983 72.208 258.935 72.016 257.079 72.016C255.031 72.016 253.207 72.112 251.607 72.304C250.007 72.496 249.207 73.04 249.207 73.936C249.207 74.96 250.103 75.696 251.895 76.144C253.751 76.592 256.215 77.296 259.287 78.256C262.743 79.28 265.431 80.4 267.351 81.616C269.335 82.832 270.711 84.304 271.479 86.032C272.311 87.76 272.727 89.904 272.727 92.464C272.727 97.072 270.839 100.656 267.063 103.216C263.351 105.712 257.815 106.96 250.455 106.96ZM290.428 122.896C287.868 122.896 285.692 122.736 283.9 122.416C282.172 122.16 280.444 121.712 278.716 121.072V108.784C279.74 109.168 280.7 109.424 281.596 109.552C282.556 109.68 283.548 109.744 284.572 109.744C287.132 109.744 288.988 109.424 290.14 108.784C291.356 108.144 292.572 106.864 293.788 104.944L273.244 60.496H292.156L302.812 87.28L313.18 60.496H331.996L315.196 101.68C312.572 108.144 309.34 113.296 305.5 117.136C301.724 120.976 296.7 122.896 290.428 122.896Z" fill="white"/>
<path d="M184.218 153.595C185.755 157.736 186.717 161.429 181.692 163.791C179.553 164.796 180.286 167.078 180.856 169.139C181.929 173.025 177.611 177.085 173.861 175.568C170.979 174.403 169.613 175.386 168.169 177.655C165.335 182.109 160.5 182.043 157.818 177.472C156.377 175.014 154.667 174.025 152.127 175.497C149.853 176.815 148.451 175.675 146.912 174.201C145.255 172.616 143.96 171.198 145.218 168.616C146.482 166.023 145.951 164.002 142.917 162.622C139.176 160.919 138.979 155.04 142.64 153.174C145.681 151.624 146.198 149.926 145.165 146.79C143.902 142.96 148.305 138.683 151.928 140.184C154.885 141.409 156.479 140.628 158.127 138.14C160.947 133.883 164.899 133.992 167.797 138.236C169.249 140.362 170.882 141.958 173.525 140.221C176.104 138.526 177.455 140.389 179.069 141.801C180.675 143.204 181.949 144.658 180.689 146.934C178.654 150.61 180.149 152.543 184.218 153.595ZM153.699 153.618C151.642 157.695 152.613 161.44 155.41 164.627C157.968 167.541 161.4 168.732 165.292 167.687C169.945 166.437 172.67 163.449 172.991 158.53C173.315 153.562 170.789 149.73 166.237 148.174C161.241 146.466 157.73 147.843 153.699 153.618Z" fill="white"/>
<path d="M35.4713 171V142.2H46.1113C48.1646 142.2 49.9113 142.533 51.3513 143.2C52.7913 143.867 53.8846 144.8 54.6312 146C55.4046 147.173 55.7913 148.573 55.7913 150.2C55.7913 151.827 55.4046 153.253 54.6312 154.48C53.8846 155.68 52.7913 156.627 51.3513 157.32C49.9113 157.987 48.1646 158.32 46.1113 158.32H37.8713V155.44H45.9913C48.1246 155.44 49.7379 154.973 50.8313 154.04C51.9513 153.107 52.5113 151.827 52.5113 150.2C52.5113 148.6 51.9646 147.347 50.8713 146.44C49.7779 145.533 48.1513 145.08 45.9913 145.08H38.7513V171H35.4713ZM52.3513 171L37.0312 156.72H41.5113L57.3113 171H52.3513ZM82.0091 171.4C80.0091 171.4 78.1691 171.04 76.4891 170.32C74.8357 169.573 73.3957 168.533 72.1691 167.2C70.9424 165.84 69.9824 164.253 69.2891 162.44C68.6224 160.627 68.2891 158.64 68.2891 156.48C68.2891 153.627 68.8757 151.093 70.0491 148.88C71.2224 146.667 72.8357 144.933 74.8891 143.68C76.9691 142.427 79.3291 141.8 81.9691 141.8C84.6624 141.8 87.0357 142.427 89.0891 143.68C91.1691 144.933 92.7957 146.667 93.9691 148.88C95.1424 151.093 95.7291 153.64 95.7291 156.52C95.7291 158.68 95.3824 160.667 94.6891 162.48C94.0224 164.293 93.0757 165.867 91.8491 167.2C90.6224 168.533 89.1691 169.573 87.4891 170.32C85.8091 171.04 83.9824 171.4 82.0091 171.4ZM81.9691 168.44C84.0224 168.44 85.8224 167.933 87.3691 166.92C88.9424 165.88 90.1691 164.453 91.0491 162.64C91.9291 160.827 92.3691 158.76 92.3691 156.44C92.3691 154.147 91.9291 152.12 91.0491 150.36C90.1957 148.6 88.9824 147.227 87.4091 146.24C85.8624 145.253 84.0491 144.76 81.9691 144.76C79.8891 144.76 78.0757 145.253 76.5291 146.24C74.9824 147.227 73.7824 148.6 72.9291 150.36C72.0757 152.093 71.6491 154.12 71.6491 156.44C71.6491 158.787 72.0757 160.867 72.9291 162.68C73.8091 164.467 75.0224 165.88 76.5691 166.92C78.1157 167.933 79.9157 168.44 81.9691 168.44ZM111.342 171V168.28H120.542C122.302 168.28 123.702 167.8 124.742 166.84C125.782 165.88 126.302 164.587 126.302 162.96C126.302 161.227 125.756 159.84 124.662 158.8C123.569 157.76 122.102 157.24 120.262 157.24H111.342V154.6H119.822C121.636 154.6 123.049 154.16 124.062 153.28C125.076 152.4 125.582 151.16 125.582 149.56C125.582 148.067 125.102 146.92 124.142 146.12C123.209 145.32 121.836 144.92 120.022 144.92H111.342V142.2H120.302C122.942 142.2 125.022 142.827 126.542 144.08C128.089 145.333 128.862 147.04 128.862 149.2C128.862 150.56 128.556 151.773 127.942 152.84C127.329 153.907 126.489 154.747 125.422 155.36C124.356 155.947 123.129 156.24 121.742 156.24L121.942 155.4C123.409 155.4 124.716 155.747 125.862 156.44C127.036 157.133 127.956 158.08 128.622 159.28C129.316 160.453 129.662 161.8 129.662 163.32C129.662 164.84 129.289 166.187 128.542 167.36C127.822 168.507 126.796 169.4 125.462 170.04C124.129 170.68 122.582 171 120.822 171H111.342ZM109.182 171V142.2H112.462V171H109.182ZM198.547 171V145.08H188.667V142.2H211.707V145.08H201.827V171H198.547ZM224.612 171V142.2H227.892V171H224.612ZM254.976 171.4C253.003 171.4 251.176 171.04 249.496 170.32C247.843 169.573 246.403 168.547 245.176 167.24C243.949 165.907 243.003 164.347 242.336 162.56C241.669 160.747 241.336 158.76 241.336 156.6C241.336 154.44 241.669 152.467 242.336 150.68C243.003 148.867 243.936 147.307 245.136 146C246.363 144.667 247.803 143.64 249.456 142.92C251.136 142.173 252.963 141.8 254.936 141.8C257.096 141.8 259.029 142.24 260.736 143.12C262.469 144 263.883 145.24 264.976 146.84C266.096 148.44 266.789 150.307 267.056 152.44H263.776C263.456 150.067 262.509 148.2 260.936 146.84C259.389 145.453 257.403 144.76 254.976 144.76C252.923 144.76 251.123 145.267 249.576 146.28C248.029 147.267 246.829 148.653 245.976 150.44C245.123 152.2 244.696 154.253 244.696 156.6C244.696 158.947 245.123 161.013 245.976 162.8C246.829 164.56 248.029 165.947 249.576 166.96C251.123 167.947 252.909 168.44 254.936 168.44C257.416 168.44 259.443 167.747 261.016 166.36C262.616 164.973 263.563 163.107 263.856 160.76H267.136C266.869 162.893 266.176 164.76 265.056 166.36C263.963 167.96 262.549 169.2 260.816 170.08C259.109 170.96 257.163 171.4 254.976 171.4ZM290.192 171.36C286.832 171.36 284.152 170.533 282.152 168.88C280.179 167.227 279.019 164.867 278.672 161.8H281.872C282.166 164.013 283.006 165.68 284.392 166.8C285.779 167.92 287.699 168.48 290.152 168.48C292.232 168.48 293.792 168.093 294.832 167.32C295.899 166.52 296.432 165.36 296.432 163.84C296.432 162.533 296.072 161.493 295.352 160.72C294.632 159.947 293.512 159.307 291.992 158.8L287.152 157.12C284.699 156.267 282.886 155.24 281.712 154.04C280.539 152.813 279.952 151.267 279.952 149.4C279.952 147.853 280.339 146.52 281.112 145.4C281.886 144.253 282.979 143.36 284.392 142.72C285.806 142.08 287.446 141.76 289.312 141.76C292.192 141.76 294.499 142.52 296.232 144.04C297.966 145.533 298.966 147.667 299.232 150.44H296.032C295.686 148.44 294.966 146.973 293.872 146.04C292.806 145.107 291.259 144.64 289.232 144.64C287.312 144.64 285.819 145.027 284.752 145.8C283.686 146.573 283.152 147.667 283.152 149.08C283.152 150.28 283.526 151.24 284.272 151.96C285.019 152.68 286.179 153.307 287.752 153.84L292.912 155.64C295.152 156.413 296.832 157.467 297.952 158.8C299.072 160.107 299.632 161.773 299.632 163.8C299.632 166.2 298.806 168.067 297.152 169.4C295.526 170.707 293.206 171.36 290.192 171.36Z" fill="white"/>
</svg>
